<svg id="图层_1" data-name="图层 1" xmlns="http://www.w3.org/2000/svg" viewBox="0 0 566.93 566.93"><defs><style>.cls-1{opacity:0.37;}.cls-2{fill:#7c7b7c;}.cls-3{fill:#686868;}.cls-4{fill:#8c8b8b;}.cls-5{fill:#727272;}.cls-6{fill:#c0bfbf;}.cls-7{fill:#ddd;}</style></defs><title>错误页面</title><g class="cls-1"><polygon class="cls-2" points="376.45 199.88 382.82 191.27 386.19 391.9 376.45 387.07 376.45 199.88"/><polygon class="cls-3" points="180.6 191.27 189.27 199.88 376.45 199.88 382.82 191.27 180.6 191.27"/><path class="cls-4" d="M241,391.9H386.19l-9.74-4.83H239C239.75,388.65,240.41,390.26,241,391.9Z"/><path class="cls-5" d="M175.42,117.23l4.82,68.92a5.51,5.51,0,0,0,5.5,5.12h192a5.51,5.51,0,0,0,5.5-5.11l5.06-68.91a5.52,5.52,0,0,0-5.5-5.92H180.92A5.51,5.51,0,0,0,175.42,117.23Z"/><path class="cls-5" d="M111.24,388.29a70.17,70.17,0,0,1,64.17-41.79A71,71,0,0,1,184,347l-3.25-150.42a6.36,6.36,0,0,0-5.4-6.16l-60.72-9.33a6.37,6.37,0,0,0-7.34,6.41l3.36,198.09A6.2,6.2,0,0,0,111.24,388.29Z"/><path class="cls-2" d="M189.27,347.88v-148l-8.67-8.62L184,347C185.75,347.26,187.52,347.53,189.27,347.88Z"/><path class="cls-6" d="M239,387.07H376.45V199.89H189.27v148A70.25,70.25,0,0,1,239,387.07Z"/><path class="cls-5" d="M245.11,408.82a70.16,70.16,0,0,1,80.76,46.24A70.13,70.13,0,0,1,387,416.68l-.56-17a8,8,0,0,0-8-7.78H241A70.08,70.08,0,0,1,245.11,408.82Z"/><path class="cls-5" d="M383.64,391.84l51.18-1.43a69.87,69.87,0,0,1,33-16.39l-3.27-191.39a2.24,2.24,0,0,0-2.64-2.17c-12.27,2.25-64.33,11.73-76.64,13a2.23,2.23,0,0,1-2.47-2.23l-1.48,198.31A2.24,2.24,0,0,0,383.64,391.84Z"/></g><path class="cls-6" d="M267.39,285.54h-4.2v7.8H252.27v-7.8H234.63V274.92l15.66-23.22h12.9V276h4.2ZM252.27,276V263.4h-.36l-7.68,12.24V276Z"/><path class="cls-6" d="M287.55,293.94a22.13,22.13,0,0,1-6.63-.93,10.72,10.72,0,0,1-5-3.36,16.67,16.67,0,0,1-3.18-6.6,50.93,50.93,0,0,1,0-21.15,16.38,16.38,0,0,1,3.18-6.54,10.81,10.81,0,0,1,5-3.33,24.1,24.1,0,0,1,13.26,0,10.62,10.62,0,0,1,5,3.33,16.64,16.64,0,0,1,3.15,6.54,50.93,50.93,0,0,1,0,21.15,16.92,16.92,0,0,1-3.15,6.6,10.54,10.54,0,0,1-5,3.36A22.13,22.13,0,0,1,287.55,293.94Zm0-9.72a5.15,5.15,0,0,0,2.37-.48,3.32,3.32,0,0,0,1.47-1.77,13.1,13.1,0,0,0,.78-3.57,58.28,58.28,0,0,0,.24-5.88q0-3.6-.24-5.91a13.61,13.61,0,0,0-.78-3.63,3.32,3.32,0,0,0-1.47-1.8,5.15,5.15,0,0,0-2.37-.48,5,5,0,0,0-2.31.48,3.45,3.45,0,0,0-1.5,1.8,12.75,12.75,0,0,0-.81,3.63q-.24,2.31-.24,5.91a58.28,58.28,0,0,0,.24,5.88,12.27,12.27,0,0,0,.81,3.57,3.45,3.45,0,0,0,1.5,1.77A5,5,0,0,0,287.55,284.22Z"/><path class="cls-6" d="M339.57,285.54h-4.2v7.8H324.45v-7.8H306.81V274.92l15.66-23.22h12.9V276h4.2ZM324.45,276V263.4h-.36l-7.68,12.24V276Z"/><path class="cls-7" d="M417.7,162.71c-.12-3.69-4.23-6.66-9.28-6.65s-9.15,3-9.26,6.67c-4,.77-6.94,3.43-6.94,6.6,0,3.77,4.17,6.81,9.29,6.8A11.69,11.69,0,0,0,406.6,175a4.13,4.13,0,0,1,3.63,0,11.69,11.69,0,0,0,5.09,1.12c5.13,0,9.27-3.07,9.27-6.83C424.58,166.12,421.66,163.48,417.7,162.71Z"/><path class="cls-7" d="M156.52,141.06c.14-6-6.3-11.22-14.54-11.65-6.23-.32-11.72,2.18-14.23,6-2.56-3.08-7-5.25-12.24-5.52-8.23-.42-15.16,4.06-15.66,10.07-6.58.89-11.62,5-11.88,10.15-.32,6.13,6.19,11.45,14.54,11.88a19.09,19.09,0,0,0,8.39-1.4,6.75,6.75,0,0,1,5.91.3,19.12,19.12,0,0,0,8.21,2.27,18.38,18.38,0,0,0,10.25-2.35,17.28,17.28,0,0,0,2.1-.72,6.71,6.71,0,0,1,5.91.3,19.07,19.07,0,0,0,8.2,2.26c8.35.43,15.38-4.19,15.69-10.32C167.44,147.21,162.9,142.66,156.52,141.06Z"/><path class="cls-6" d="M238,312.32a9.6,9.6,0,0,1-1,1.81v4.73h-.4v-4.15c-.24.34-.49.66-.75,1s-.53.61-.81.89l-.19-.39c.27-.28.54-.59.81-.92s.52-.67.76-1,.46-.7.66-1.05a7.86,7.86,0,0,0,.5-1Zm-2.93,9.77c.14-.18.27-.37.41-.59s.27-.44.4-.67l.35-.67c.11-.23.21-.44.29-.65l.36.14a6.45,6.45,0,0,1-.3.68c-.11.24-.23.47-.36.7s-.26.45-.39.67-.27.42-.4.59Zm5.07-6.34c-.13.23-.28.47-.44.72l-.52.72c-.18.23-.36.46-.56.68a6.46,6.46,0,0,1-.57.59l-.3-.24a11.88,11.88,0,0,0,1.12-1.26,11.36,11.36,0,0,0,.94-1.39Zm-2.19-.41c.23-.24.46-.49.68-.76s.42-.55.61-.83a9.42,9.42,0,0,0,.51-.84q.22-.42.39-.81l.36.14c-.09.2-.19.4-.29.61a6.34,6.34,0,0,1-.34.62h5.22v.39l-1,1.59-.34-.14.92-1.44h-5c-.2.3-.41.6-.64.89s-.47.57-.73.84Zm4.53,6.05a1.58,1.58,0,0,1,0-.26l0-.32c0-.11,0-.2,0-.28a1.14,1.14,0,0,0,0-.15l.37.16v.15c0,.08,0,.16,0,.26l0,.31a1.38,1.38,0,0,0,0,.26,2.25,2.25,0,0,1-.15.54.7.7,0,0,1-.23.32.85.85,0,0,1-.36.15l-.55.05a18.43,18.43,0,0,1-2.35,0,2.64,2.64,0,0,1-.55-.07,1,1,0,0,1-.36-.19.72.72,0,0,1-.21-.36,1.87,1.87,0,0,1-.07-.58v-2l.4,0v1.9a1.78,1.78,0,0,0,0,.44.51.51,0,0,0,.41.4,2.35,2.35,0,0,0,.42.06,20.37,20.37,0,0,0,2.21,0,4.24,4.24,0,0,0,.47-.05.81.81,0,0,0,.28-.12.49.49,0,0,0,.15-.24A3.59,3.59,0,0,0,242.52,321.39ZM240,319.12l.29.32.38.42c.13.15.25.3.38.44s.22.26.29.36l-.29.25-.28-.36-.37-.44-.38-.42-.3-.33Zm2.06-1.38a.86.86,0,0,1-.26.73,1.79,1.79,0,0,1-.87.23l-.71.08-.12-.41.75-.05a1.37,1.37,0,0,0,.65-.16c.11-.07.16-.25.16-.52v-2.93l.4,0Zm3.1.66-.48-.6c-.18-.22-.36-.45-.56-.68l-.56-.67c-.18-.21-.35-.39-.49-.53l.29-.24.48.53.57.66.57.69.49.6Zm-1.4.9c.13.16.28.36.45.59s.34.46.51.7l.48.72.4.61-.34.23c-.1-.17-.23-.37-.38-.6l-.48-.72c-.17-.24-.33-.48-.5-.7s-.31-.43-.45-.6Z"/><path class="cls-6" d="M250.82,320l-.29.25-.59.53-.6.54-.36.31-.15.12a1.79,1.79,0,0,0-.24.24l-.25-.3a1,1,0,0,0,.2-.27.48.48,0,0,0,0-.18v-4.63h-1.77v-.42H249v4.92l.39-.34.54-.48.5-.45.26-.24Zm-1.52-5c-.11-.16-.24-.33-.39-.53l-.47-.6-.49-.57c-.16-.18-.3-.33-.42-.44l.31-.28c.13.12.28.27.44.45s.33.37.49.57.33.4.48.6.28.38.38.53Zm3.27-.52V315c0,.17,0,.34,0,.51s0,.34,0,.49a3.84,3.84,0,0,1,0,.39v.21a1.41,1.41,0,0,0,0,.2h3.72s0,.11,0,.3,0,.42,0,.7,0,.59-.05.92,0,.66-.06,1,0,.58,0,.83,0,.41,0,.51a2.17,2.17,0,0,1-.14.67.92.92,0,0,1-.3.41,1.72,1.72,0,0,1-.53.21c-.22,0-.49.07-.81.1l-.78.06-.12-.43.81,0c.27,0,.5-.05.68-.09a1,1,0,0,0,.43-.16.58.58,0,0,0,.25-.32,2,2,0,0,0,.11-.52q0-.15,0-.45c0-.2,0-.42,0-.66s0-.5,0-.77,0-.52,0-.76,0-.46,0-.65,0-.32,0-.4h-3.31c0,.69-.11,1.29-.19,1.81a7.37,7.37,0,0,1-.37,1.42,5.91,5.91,0,0,1-.62,1.23,9.69,9.69,0,0,1-1,1.21l-.34-.29a8.84,8.84,0,0,0,1-1.27,5.45,5.45,0,0,0,.61-1.29,7.6,7.6,0,0,0,.32-1.58c.07-.58.12-1.29.15-2.1l.05-1.8h-1.8v-.42h3.43c0-.15-.08-.32-.14-.49s-.11-.36-.17-.53-.11-.34-.16-.5-.1-.29-.14-.4l.41-.05c0,.11.09.25.14.41s.11.34.17.52.11.36.17.54l.16.5h3.25v.42Z"/><path class="cls-6" d="M259.62,322.76v-8.33l.42,0v8.3Zm.4-10.51c.12.09.25.22.42.38l.5.49.49.5c.16.17.29.3.39.42l-.3.32c-.09-.11-.22-.25-.37-.41s-.31-.34-.48-.51-.33-.35-.5-.5l-.41-.39ZM262,320.1v-4.3H266v4.3Zm3.67-3.89h-3.27v3.49h3.27Zm2.75,5a3.06,3.06,0,0,1-.07.67.71.71,0,0,1-.24.4,1.15,1.15,0,0,1-.47.23,5.28,5.28,0,0,1-.75.1l-1.19.11-.12-.42,1.23-.09a5.31,5.31,0,0,0,.59-.08.85.85,0,0,0,.37-.18.53.53,0,0,0,.19-.31,2.5,2.5,0,0,0,.05-.53v-7.52h-5.46v-.42h5.87Z"/><path class="cls-6" d="M273.43,312.21c0,.14-.06.29-.1.46s-.09.34-.14.51l-.15.53c-.05.18-.11.34-.16.49h2.05v8.2h-3.72v-8.2h1.23c.06-.15.11-.31.17-.49l.15-.55c.05-.18.1-.36.14-.55l.11-.48Zm1.1,2.41H271.6v3.26h2.93Zm0,7.38v-3.7H271.6V322Zm5.91-7.8s0,.21,0,.53,0,.72,0,1.2,0,1-.05,1.56,0,1.09-.06,1.59,0,.94,0,1.32,0,.62,0,.73a3,3,0,0,1-.11.64.91.91,0,0,1-.27.39,1.06,1.06,0,0,1-.48.21,5.55,5.55,0,0,1-.74.1l-1,.07-.16-.42,1-.07a4.29,4.29,0,0,0,.62-.07.94.94,0,0,0,.39-.16.64.64,0,0,0,.19-.32,2.88,2.88,0,0,0,.09-.53q0-.15,0-.63c0-.32,0-.7,0-1.14s0-.9.05-1.38,0-.95,0-1.39,0-.82,0-1.15,0-.54,0-.66h-3.41c-.15.36-.32.7-.49,1s-.37.66-.58,1l-.35-.24a9.45,9.45,0,0,0,.64-1.07c.19-.38.36-.76.52-1.14s.29-.76.41-1.12.21-.7.29-1l.4.09c-.08.3-.18.63-.29,1s-.24.72-.38,1.08Zm-2.43,5-.42-.64c-.17-.24-.34-.49-.52-.73l-.53-.7c-.17-.22-.32-.4-.45-.55l.31-.24.46.56c.18.22.35.46.53.7l.53.72c.17.24.32.44.44.62Z"/><path class="cls-6" d="M287.65,317.23c0,.17,0,.35,0,.53v.4a5.72,5.72,0,0,1-.23,1.45,3,3,0,0,1-.76,1.19,6.29,6.29,0,0,1-1.56,1,18.72,18.72,0,0,1-2.6,1l-.18-.43a20.61,20.61,0,0,0,2.51-.91,5.65,5.65,0,0,0,1.48-.94,2.51,2.51,0,0,0,.72-1.07,4.83,4.83,0,0,0,.2-1.33v-1.59l.43,0Zm-.89-2c.1-.32.19-.67.29-1s.19-.69.25-1h-4.75v-.43h9.73v.43h-4.52c-.07.28-.15.6-.25,1s-.2.72-.29,1H291v4.93h-.43v-4.53h-6.33v4.53h-.43v-4.93Zm1,4.51q.39.19,1,.54L290,321l1.26.73,1.06.62-.22.42c-.29-.19-.65-.41-1.05-.65l-1.26-.75-1.23-.7-1-.55Z"/><path class="cls-6" d="M299.38,313.2c0,.12-.09.27-.15.42l-.18.49-.18.5c-.07.16-.13.31-.18.44h4.83v7.69h-.41v-.81H295.4v.81H295v-7.69h3.25c.06-.13.12-.27.18-.43l.18-.49c.07-.17.13-.33.18-.49l.16-.44h-4.79v-.4h10.21v.4Zm-4,8.38h2.05v-6.15H295.4Zm5.25-6.15h-2.8v1.79h2.8Zm0,2.18h-2.8v1.79h2.8Zm-2.8,4h2.8v-1.8h-2.8Zm5.26-6.15h-2.05v6.15h2.05Z"/><path class="cls-6" d="M312.27,313.51a14,14,0,0,1-1.09,1.83c-.43.6-.89,1.19-1.4,1.77s-1,1.13-1.64,1.68-1.2,1-1.83,1.53L306,320c.61-.45,1.2-.94,1.77-1.45s1.09-1,1.59-1.59a18.82,18.82,0,0,0,1.34-1.7,13,13,0,0,0,1-1.71h-5.37v-.43h9.64v.43ZM311,315.62l.41,0v7.18H311Zm1.29.5c.29.23.62.5,1,.83s.75.65,1.13,1,.73.68,1.07,1,.63.62.85.86l-.3.35c-.22-.25-.51-.54-.85-.87l-1.06-1c-.37-.35-.74-.69-1.11-1s-.69-.6-1-.83Z"/><path class="cls-6" d="M321.66,314.07a15.84,15.84,0,0,1-1.43,2.5v6.3h-.41v-5.74a18.62,18.62,0,0,1-2.05,2.25l-.22-.4a17.66,17.66,0,0,0,2.05-2.27,15.12,15.12,0,0,0,1.58-2.64H318v-.39h3.36q.31-.76.57-1.59l.42.09-.24.76c-.09.25-.18.5-.29.74h6.35v.39Zm6.74,5.21H325v2.27a2.12,2.12,0,0,1-.06.54.62.62,0,0,1-.22.34,1,1,0,0,1-.41.18,4.57,4.57,0,0,1-.66.08l-1,.06-.12-.4,1-.05a3.39,3.39,0,0,0,.54-.06.86.86,0,0,0,.32-.13.49.49,0,0,0,.15-.24,2,2,0,0,0,0-.38v-2.21H321v-.41h3.54v-1l2.21-1.62h-4.84v-.39h5.51v.39L325,318.06v.81h3.43Z"/><path class="cls-6" d="M333.38,314.17a19.28,19.28,0,0,1-1.61,2.83v5.84h-.41v-5.28a13.24,13.24,0,0,1-.92,1.15c-.32.36-.65.7-1,1l-.26-.35a16.65,16.65,0,0,0,2.05-2.37,18.39,18.39,0,0,0,1.68-2.85H329.6v-.4h3.51c.13-.28.25-.56.37-.86s.21-.58.3-.86l.39.1c-.18.55-.39,1.09-.61,1.62h6.17v.4Zm6.48,7.37v.37h-7.6v-.37h3.52V317.9h-2.89v-.42h2.89v-2.23l.42,0v2.21h3.06v.42H336.2v3.64Z"/><rect class="cls-6" x="235.54" y="297.45" width="29" height="1.75"/><rect class="cls-6" x="264.54" y="297.84" width="75.15" height="0.98"/><path class="cls-6" d="M241.94,333.26h-1.31v3.91h-.28v-3.91H239V333h2.9Z"/><path class="cls-6" d="M243.89,333.87a1.46,1.46,0,0,1,.51.07.88.88,0,0,1,.33.2.86.86,0,0,1,.17.33,1.88,1.88,0,0,1,0,.43v2.27h-.27v-2.1a1.94,1.94,0,0,0,0-.44.59.59,0,0,0-.12-.29.49.49,0,0,0-.25-.17,1.18,1.18,0,0,0-.41-.06l-.33,0a.91.91,0,0,0-.31.12.66.66,0,0,0-.26.24,1,1,0,0,0-.16.39v2.28h-.27v-4.56h.27v1.88a.67.67,0,0,1,.15-.29.83.83,0,0,1,.27-.19,1.17,1.17,0,0,1,.33-.11A2,2,0,0,1,243.89,333.87Z"/><path class="cls-6" d="M248.4,335.19v.14a1,1,0,0,1,0,.17l-2.28.16a2.62,2.62,0,0,0,.06.61,1,1,0,0,0,.19.41.75.75,0,0,0,.36.23,1.75,1.75,0,0,0,.55.07,3.27,3.27,0,0,0,.53-.05,1.51,1.51,0,0,0,.48-.15V337l-.18.06a1.49,1.49,0,0,1-.25.07l-.29,0-.31,0a2.08,2.08,0,0,1-.65-.09.91.91,0,0,1-.44-.27,1.4,1.4,0,0,1-.25-.52,4,4,0,0,1,0-1.6,1.2,1.2,0,0,1,.24-.52,1,1,0,0,1,.44-.28,2.25,2.25,0,0,1,.63-.08,1.43,1.43,0,0,1,.64.12,1,1,0,0,1,.36.31,1.05,1.05,0,0,1,.15.43A3.55,3.55,0,0,1,248.4,335.19Zm-.25.09a3.43,3.43,0,0,0,0-.48.81.81,0,0,0-.13-.37.58.58,0,0,0-.28-.23,1.18,1.18,0,0,0-.5-.09,1.6,1.6,0,0,0-.53.08.6.6,0,0,0-.33.23.82.82,0,0,0-.18.41,2.64,2.64,0,0,0-.06.6Z"/><path class="cls-6" d="M252.21,333.87a1.56,1.56,0,0,1,.61.1.85.85,0,0,1,.38.32,1.34,1.34,0,0,1,.21.53,3.91,3.91,0,0,1,.06.73,3.69,3.69,0,0,1-.06.69,1.4,1.4,0,0,1-.21.53.9.9,0,0,1-.38.34,1.38,1.38,0,0,1-.61.12,1.53,1.53,0,0,1-.45-.06,1.07,1.07,0,0,1-.34-.16.84.84,0,0,1-.23-.23,1.4,1.4,0,0,1-.15-.3v1.89h-.27v-4.44H251v.71a1,1,0,0,1,.38-.56A1.28,1.28,0,0,1,252.21,333.87Zm0,3.11a1.08,1.08,0,0,0,.51-.1.7.7,0,0,0,.31-.28,1.25,1.25,0,0,0,.16-.46,3.49,3.49,0,0,0,0-.59,3.87,3.87,0,0,0,0-.62,1.32,1.32,0,0,0-.16-.45.74.74,0,0,0-.31-.27,1.1,1.1,0,0,0-.51-.1,1.28,1.28,0,0,0-.55.11.92.92,0,0,0-.35.3,1.07,1.07,0,0,0-.18.45,2.65,2.65,0,0,0-.06.58,2.62,2.62,0,0,0,.06.57,1.07,1.07,0,0,0,.18.45.92.92,0,0,0,.35.3A1.15,1.15,0,0,0,252.17,337Z"/><path class="cls-6" d="M255.66,333.87a1.65,1.65,0,0,1,.59.08.8.8,0,0,1,.35.21.76.76,0,0,1,.17.32,1.75,1.75,0,0,1,.05.4v2.29h-.23l0-.58a1,1,0,0,1-.49.47,1.8,1.8,0,0,1-.79.17,1.15,1.15,0,0,1-.83-.25.9.9,0,0,1-.26-.69,1.22,1.22,0,0,1,.1-.51.91.91,0,0,1,.27-.31,1.25,1.25,0,0,1,.41-.15,2.56,2.56,0,0,1,.49,0h1.1v-.36a1.76,1.76,0,0,0,0-.34.56.56,0,0,0-.14-.25.69.69,0,0,0-.28-.16,1.81,1.81,0,0,0-.45-.05l-.35,0a2.5,2.5,0,0,0-.38.06v-.27l.38,0A2.36,2.36,0,0,1,255.66,333.87Zm-.39,3.11a1.63,1.63,0,0,0,.82-.2,1,1,0,0,0,.46-.56v-.7h-1.06a2.76,2.76,0,0,0-.44,0,.8.8,0,0,0-.33.11.5.5,0,0,0-.2.23,1.15,1.15,0,0,0-.07.4C254.45,336.75,254.72,337,255.27,337Z"/><path class="cls-6" d="M260.46,333.93v3a1.43,1.43,0,0,1-.37,1,1.5,1.5,0,0,1-1.11.37l-.41,0-.33-.05V338a1.55,1.55,0,0,0,.35.07H259a1.27,1.27,0,0,0,.93-.3,1.35,1.35,0,0,0,.29-.93v-.43a1,1,0,0,1-.38.52,1.36,1.36,0,0,1-.79.19,1.71,1.71,0,0,1-.6-.1.81.81,0,0,1-.39-.31,1.29,1.29,0,0,1-.21-.52,3.8,3.8,0,0,1-.06-.72,3.69,3.69,0,0,1,.06-.69,1.42,1.42,0,0,1,.21-.52.91.91,0,0,1,.39-.33,1.5,1.5,0,0,1,.6-.11,2.09,2.09,0,0,1,.46.05,1,1,0,0,1,.33.16.87.87,0,0,1,.23.24,1.4,1.4,0,0,1,.15.3v-.69Zm-1.39,3a1.29,1.29,0,0,0,.55-.1.8.8,0,0,0,.34-.29,1.18,1.18,0,0,0,.19-.44,3.27,3.27,0,0,0,.05-.57,3.36,3.36,0,0,0-.05-.57,1.18,1.18,0,0,0-.19-.44.88.88,0,0,0-.34-.29,1.28,1.28,0,0,0-.55-.11,1.22,1.22,0,0,0-.51.1.76.76,0,0,0-.31.28,1.09,1.09,0,0,0-.16.44,5,5,0,0,0,0,.59,3.67,3.67,0,0,0,.05.61,1.09,1.09,0,0,0,.16.44.72.72,0,0,0,.31.26A1.21,1.21,0,0,0,259.07,336.92Z"/><path class="cls-6" d="M263.94,335.19v.14c0,.05,0,.11,0,.17l-2.29.16a3.3,3.3,0,0,0,.06.61,1,1,0,0,0,.2.41.72.72,0,0,0,.35.23,1.75,1.75,0,0,0,.55.07,3.5,3.5,0,0,0,.54-.05,1.51,1.51,0,0,0,.48-.15V337l-.18.06-.25.07-.3,0-.3,0a2,2,0,0,1-.65-.09.87.87,0,0,1-.44-.27,1.15,1.15,0,0,1-.25-.52,3,3,0,0,1-.09-.8,3.59,3.59,0,0,1,.08-.8,1.2,1.2,0,0,1,.25-.52.92.92,0,0,1,.43-.28,2.38,2.38,0,0,1,.64-.08,1.39,1.39,0,0,1,.63.12.85.85,0,0,1,.36.31,1.23,1.23,0,0,1,.16.43A3.55,3.55,0,0,1,263.94,335.19Zm-.26.09a3.43,3.43,0,0,0,0-.48.81.81,0,0,0-.12-.37.61.61,0,0,0-.29-.23,1.15,1.15,0,0,0-.5-.09,1.54,1.54,0,0,0-.52.08.63.63,0,0,0-.34.23,1,1,0,0,0-.18.41,2.64,2.64,0,0,0-.06.6Z"/><path class="cls-6" d="M266,338.13a1.18,1.18,0,0,0,.35-.05.63.63,0,0,0,.27-.16.88.88,0,0,0,.21-.3,2.4,2.4,0,0,0,.19-.47l-1.29-3.22h.29l1.13,2.88h0l1-2.88h.28l-1.2,3.26q-.11.27-.21.48a1.32,1.32,0,0,1-.25.38.93.93,0,0,1-.35.23,1.21,1.21,0,0,1-.5.09Z"/><path class="cls-6" d="M270.32,337.23a1.91,1.91,0,0,1-.63-.09.9.9,0,0,1-.43-.28,1.2,1.2,0,0,1-.24-.52,3.5,3.5,0,0,1-.08-.79,3.59,3.59,0,0,1,.08-.8,1.32,1.32,0,0,1,.24-.52,1,1,0,0,1,.43-.28,2.52,2.52,0,0,1,1.26,0,1,1,0,0,1,.44.28,1.48,1.48,0,0,1,.25.52,3.66,3.66,0,0,1,.07.8,3.56,3.56,0,0,1-.07.79,1.33,1.33,0,0,1-.25.52.93.93,0,0,1-.44.28A1.91,1.91,0,0,1,270.32,337.23Zm0-.25a1.65,1.65,0,0,0,.54-.07.71.71,0,0,0,.34-.25,1.12,1.12,0,0,0,.18-.44,4.08,4.08,0,0,0,.05-.67,4.21,4.21,0,0,0-.05-.68,1,1,0,0,0-.19-.44.66.66,0,0,0-.34-.24,1.8,1.8,0,0,0-1.06,0,.76.76,0,0,0-.34.24,1,1,0,0,0-.17.44,3.23,3.23,0,0,0-.06.68,3.13,3.13,0,0,0,.06.67,1,1,0,0,0,.17.44.71.71,0,0,0,.34.25A1.62,1.62,0,0,0,270.32,337Z"/><path class="cls-6" d="M275,333.93v3.24h-.22l-.05-.57a.54.54,0,0,1-.15.29.82.82,0,0,1-.25.2,1.6,1.6,0,0,1-.33.11,2.07,2.07,0,0,1-.35,0,1.72,1.72,0,0,1-.5-.07.75.75,0,0,1-.32-.21.71.71,0,0,1-.17-.32,1.88,1.88,0,0,1-.05-.43v-2.27h.27V336a2.63,2.63,0,0,0,0,.43.71.71,0,0,0,.13.29.46.46,0,0,0,.24.17,1.16,1.16,0,0,0,.4.06,1.84,1.84,0,0,0,.33,0,.88.88,0,0,0,.32-.12.77.77,0,0,0,.25-.23,1,1,0,0,0,.15-.4v-2.27Z"/><path class="cls-6" d="M277,333.93h.28l1.1,2.94h0l1.08-2.94h.29l-1.23,3.24h-.32Z"/><path class="cls-6" d="M280.52,333.21c-.07,0-.12,0-.14,0s0-.07,0-.16,0-.14,0-.17a.34.34,0,0,1,.28,0s0,.08,0,.17,0,.14,0,.16S280.59,333.21,280.52,333.21Zm-.14.72h.27v3.24h-.27Z"/><path class="cls-6" d="M282.5,337.2a3.93,3.93,0,0,1-.49,0l-.44-.07v-.26a3.51,3.51,0,0,0,.42.08,4.12,4.12,0,0,0,.51,0,1,1,0,0,0,.64-.16.55.55,0,0,0,.21-.48.9.9,0,0,0,0-.25.39.39,0,0,0-.12-.19.89.89,0,0,0-.24-.14,2.94,2.94,0,0,0-.39-.13l-.42-.12a1.11,1.11,0,0,1-.29-.16.66.66,0,0,1-.17-.24,1.13,1.13,0,0,1-.05-.35.74.74,0,0,1,.29-.66,1.23,1.23,0,0,1,.75-.21,3.68,3.68,0,0,1,.49,0,1.52,1.52,0,0,1,.35.08l0,.26a1.54,1.54,0,0,0-.37-.09,3.42,3.42,0,0,0-.45,0,1,1,0,0,0-.56.15.53.53,0,0,0-.21.48.73.73,0,0,0,0,.27.46.46,0,0,0,.14.17.9.9,0,0,0,.22.11,2,2,0,0,0,.31.08l.45.14a1.35,1.35,0,0,1,.32.19.58.58,0,0,1,.18.25,1,1,0,0,1,.05.37.8.8,0,0,1-.26.64A1.26,1.26,0,0,1,282.5,337.2Z"/><path class="cls-6" d="M284.65,333.21a.21.21,0,0,1-.15,0,.24.24,0,0,1,0-.16.3.3,0,0,1,0-.17.28.28,0,0,1,.15,0,.24.24,0,0,1,.14,0s0,.08,0,.17,0,.14,0,.16A.18.18,0,0,1,284.65,333.21Zm-.14.72h.27v3.24h-.27Z"/><path class="cls-6" d="M286.72,337h.22l.21,0v.24l-.21,0h-.21a2,2,0,0,1-.38,0,.43.43,0,0,1-.25-.15.6.6,0,0,1-.14-.3,2.49,2.49,0,0,1,0-.52v-2h-.53v-.24h.53v-.77h.27v.77h.89v.24h-.89v2a1.84,1.84,0,0,0,0,.36.56.56,0,0,0,.08.23.3.3,0,0,0,.17.12A.68.68,0,0,0,286.72,337Z"/><path class="cls-6" d="M290.1,335.19v.14c0,.05,0,.11,0,.17l-2.29.16a2.62,2.62,0,0,0,.06.61,1,1,0,0,0,.19.41.8.8,0,0,0,.36.23,1.75,1.75,0,0,0,.55.07,3.5,3.5,0,0,0,.54-.05,1.51,1.51,0,0,0,.48-.15V337l-.18.06-.25.07-.3,0-.3,0a2,2,0,0,1-.65-.09.87.87,0,0,1-.44-.27,1.15,1.15,0,0,1-.25-.52,3,3,0,0,1-.09-.8,3.59,3.59,0,0,1,.08-.8,1.2,1.2,0,0,1,.25-.52.92.92,0,0,1,.43-.28,2.38,2.38,0,0,1,.64-.08,1.39,1.39,0,0,1,.63.12.85.85,0,0,1,.36.31,1.23,1.23,0,0,1,.16.43A3.55,3.55,0,0,1,290.1,335.19Zm-.26.09a3.43,3.43,0,0,0,0-.48,1,1,0,0,0-.12-.37.61.61,0,0,0-.29-.23,1.15,1.15,0,0,0-.5-.09,1.54,1.54,0,0,0-.52.08.63.63,0,0,0-.34.23,1,1,0,0,0-.18.41,2.64,2.64,0,0,0-.06.6Z"/><path class="cls-6" d="M293.57,332.61v4.56h-.23l0-.73a1.22,1.22,0,0,1-.14.33,1,1,0,0,1-.23.24,1.13,1.13,0,0,1-.35.16,1.6,1.6,0,0,1-.46.06,1.58,1.58,0,0,1-.61-.11.79.79,0,0,1-.38-.32,1.29,1.29,0,0,1-.21-.52,4,4,0,0,1-.06-.73,3.69,3.69,0,0,1,.06-.69,1.34,1.34,0,0,1,.21-.53.9.9,0,0,1,.38-.34,1.41,1.41,0,0,1,.61-.12,2,2,0,0,1,.45.05,1.07,1.07,0,0,1,.34.16.75.75,0,0,1,.23.24,1.32,1.32,0,0,1,.15.29v-2Zm-1.4,4.37a1.15,1.15,0,0,0,.55-.11,1,1,0,0,0,.35-.29,1.11,1.11,0,0,0,.18-.46,2.74,2.74,0,0,0,0-1.14,1.11,1.11,0,0,0-.18-.46.92.92,0,0,0-.35-.3,1.28,1.28,0,0,0-.55-.11,1.22,1.22,0,0,0-.51.1.72.72,0,0,0-.31.29,1.14,1.14,0,0,0-.16.45,4.6,4.6,0,0,0,0,1.21,1.32,1.32,0,0,0,.16.45.7.7,0,0,0,.31.28A1.26,1.26,0,0,0,292.17,337Z"/><path class="cls-6" d="M298.62,332.61v4.56h-.22l0-.73a1.64,1.64,0,0,1-.14.33.91.91,0,0,1-.24.24,1.07,1.07,0,0,1-.34.16,1.68,1.68,0,0,1-.47.06,1.5,1.5,0,0,1-.6-.11.87.87,0,0,1-.39-.32,1.45,1.45,0,0,1-.2-.52,3.23,3.23,0,0,1-.07-.73,3,3,0,0,1,.07-.69,1.5,1.5,0,0,1,.2-.53,1,1,0,0,1,.39-.34,1.34,1.34,0,0,1,.6-.12,2,2,0,0,1,.46.05,1.19,1.19,0,0,1,.34.16.88.88,0,0,1,.23.24,1,1,0,0,1,.14.29v-2ZM297.23,337a1.08,1.08,0,0,0,.54-.11.94.94,0,0,0,.36-.29,1.27,1.27,0,0,0,.18-.46,2.74,2.74,0,0,0,0-1.14,1.27,1.27,0,0,0-.18-.46.88.88,0,0,0-.36-.3,1.37,1.37,0,0,0-1,0,.75.75,0,0,0-.32.29,1.32,1.32,0,0,0-.15.45,4.6,4.6,0,0,0,0,1.21,1.14,1.14,0,0,0,.16.45.65.65,0,0,0,.31.28A1.23,1.23,0,0,0,297.23,337Z"/><path class="cls-6" d="M300.94,337.23a1.91,1.91,0,0,1-.63-.09.85.85,0,0,1-.43-.28,1.2,1.2,0,0,1-.24-.52,3.5,3.5,0,0,1-.08-.79,3.59,3.59,0,0,1,.08-.8,1.32,1.32,0,0,1,.24-.52.92.92,0,0,1,.43-.28,2.25,2.25,0,0,1,.63-.08,2.35,2.35,0,0,1,.63.08,1,1,0,0,1,.44.28,1.32,1.32,0,0,1,.24.52,3.08,3.08,0,0,1,.08.8,3,3,0,0,1-.08.79,1.2,1.2,0,0,1-.24.52.93.93,0,0,1-.44.28A2,2,0,0,1,300.94,337.23Zm0-.25a1.65,1.65,0,0,0,.54-.07.71.71,0,0,0,.34-.25,1.12,1.12,0,0,0,.18-.44,4.08,4.08,0,0,0,.05-.67,4.21,4.21,0,0,0-.05-.68,1,1,0,0,0-.19-.44.71.71,0,0,0-.34-.24,1.8,1.8,0,0,0-1.06,0,.71.71,0,0,0-.34.24,1.19,1.19,0,0,0-.18.44,4.21,4.21,0,0,0-.05.68,4.08,4.08,0,0,0,.05.67,1.12,1.12,0,0,0,.18.44.66.66,0,0,0,.34.25A1.62,1.62,0,0,0,300.94,337Z"/><path class="cls-6" d="M305.63,335.19v.14a1,1,0,0,1,0,.17l-2.29.16a3.21,3.21,0,0,0,.07.61.87.87,0,0,0,.19.41.75.75,0,0,0,.36.23,1.71,1.71,0,0,0,.55.07,3.38,3.38,0,0,0,.53-.05,1.51,1.51,0,0,0,.48-.15V337l-.18.06a1.49,1.49,0,0,1-.25.07l-.29,0-.31,0a2.08,2.08,0,0,1-.65-.09.87.87,0,0,1-.44-.27,1.26,1.26,0,0,1-.25-.52,4,4,0,0,1,0-1.6,1.2,1.2,0,0,1,.24-.52,1,1,0,0,1,.43-.28,2.38,2.38,0,0,1,.64-.08,1.43,1.43,0,0,1,.64.12.88.88,0,0,1,.35.31,1.06,1.06,0,0,1,.16.43A3.55,3.55,0,0,1,305.63,335.19Zm-.26.09c0-.18,0-.34,0-.48a.81.81,0,0,0-.13-.37.63.63,0,0,0-.28-.23,1.18,1.18,0,0,0-.5-.09,1.6,1.6,0,0,0-.53.08.67.67,0,0,0-.34.23,1,1,0,0,0-.18.41,4.67,4.67,0,0,0-.06.6Z"/><path class="cls-6" d="M307.29,337.2a4,4,0,0,1-.49,0l-.44-.07v-.26a3.51,3.51,0,0,0,.42.08,4.12,4.12,0,0,0,.51,0,1.06,1.06,0,0,0,.65-.16.55.55,0,0,0,.21-.48.62.62,0,0,0,0-.25.39.39,0,0,0-.12-.19.89.89,0,0,0-.24-.14,3.3,3.3,0,0,0-.38-.13l-.43-.12a1.11,1.11,0,0,1-.29-.16.66.66,0,0,1-.17-.24,1.13,1.13,0,0,1-.05-.35.77.77,0,0,1,.29-.66,1.23,1.23,0,0,1,.75-.21,4,4,0,0,1,.5,0,1.55,1.55,0,0,1,.34.08v.26a1.63,1.63,0,0,0-.38-.09,3.14,3.14,0,0,0-.45,0,1,1,0,0,0-.56.15.53.53,0,0,0-.21.48,1,1,0,0,0,0,.27.58.58,0,0,0,.14.17.9.9,0,0,0,.22.11,2,2,0,0,0,.31.08c.17.05.33.09.45.14a1.35,1.35,0,0,1,.32.19.58.58,0,0,1,.18.25,1,1,0,0,1,.06.37.81.81,0,0,1-.27.64A1.25,1.25,0,0,1,307.29,337.2Z"/><path class="cls-6" d="M312.08,333.87a1.46,1.46,0,0,1,.51.07.88.88,0,0,1,.33.2.86.86,0,0,1,.17.33,1.88,1.88,0,0,1,.05.43v2.27h-.27v-2.1a1.94,1.94,0,0,0,0-.44.59.59,0,0,0-.12-.29.49.49,0,0,0-.25-.17,1.18,1.18,0,0,0-.41-.06l-.33,0a.84.84,0,0,0-.31.12.66.66,0,0,0-.26.24.87.87,0,0,0-.16.39v2.28h-.27v-3.24H311v.56a.67.67,0,0,1,.15-.29.83.83,0,0,1,.27-.19,1.21,1.21,0,0,1,.32-.11Z"/><path class="cls-6" d="M315.43,337.23a1.91,1.91,0,0,1-.63-.09.85.85,0,0,1-.43-.28,1.2,1.2,0,0,1-.24-.52,3.5,3.5,0,0,1-.08-.79,3.59,3.59,0,0,1,.08-.8,1.32,1.32,0,0,1,.24-.52.92.92,0,0,1,.43-.28,2.25,2.25,0,0,1,.63-.08,2.35,2.35,0,0,1,.63.08.92.92,0,0,1,.43.28,1.2,1.2,0,0,1,.25.52,3.08,3.08,0,0,1,.08.8,3,3,0,0,1-.08.79,1.1,1.1,0,0,1-.25.52.85.85,0,0,1-.43.28A2,2,0,0,1,315.43,337.23Zm0-.25a1.69,1.69,0,0,0,.54-.07.71.71,0,0,0,.34-.25,1.12,1.12,0,0,0,.18-.44,4.08,4.08,0,0,0,.05-.67,4.21,4.21,0,0,0-.05-.68,1,1,0,0,0-.19-.44.71.71,0,0,0-.34-.24,1.8,1.8,0,0,0-1.06,0,.71.71,0,0,0-.34.24,1.19,1.19,0,0,0-.18.44,4.21,4.21,0,0,0-.05.68,4.08,4.08,0,0,0,.05.67,1.12,1.12,0,0,0,.18.44.66.66,0,0,0,.34.25A1.62,1.62,0,0,0,315.43,337Z"/><path class="cls-6" d="M318.56,337h.23l.2,0v.24l-.21,0h-.21a2,2,0,0,1-.38,0,.46.46,0,0,1-.25-.15.6.6,0,0,1-.14-.3,2.49,2.49,0,0,1,0-.52v-2h-.52v-.24h.52v-.77H318v.77h.89v.24H318v2a3.21,3.21,0,0,0,0,.36.55.55,0,0,0,.09.23.28.28,0,0,0,.16.12A.68.68,0,0,0,318.56,337Z"/><path class="cls-6" d="M323.36,335.19v.14a1,1,0,0,1,0,.17l-2.29.16a3.21,3.21,0,0,0,.07.61.87.87,0,0,0,.19.41.75.75,0,0,0,.36.23,1.71,1.71,0,0,0,.55.07,3.38,3.38,0,0,0,.53-.05,1.51,1.51,0,0,0,.48-.15V337l-.18.06a1.49,1.49,0,0,1-.25.07l-.29,0-.31,0a2.08,2.08,0,0,1-.65-.09.87.87,0,0,1-.44-.27,1.26,1.26,0,0,1-.25-.52,3.59,3.59,0,0,1-.08-.8,3.08,3.08,0,0,1,.08-.8,1.2,1.2,0,0,1,.24-.52,1,1,0,0,1,.43-.28,2.38,2.38,0,0,1,.64-.08,1.43,1.43,0,0,1,.64.12.88.88,0,0,1,.35.31,1.06,1.06,0,0,1,.16.43A3.55,3.55,0,0,1,323.36,335.19Zm-.26.09a3.54,3.54,0,0,0,0-.48.81.81,0,0,0-.13-.37.58.58,0,0,0-.28-.23,1.18,1.18,0,0,0-.5-.09,1.6,1.6,0,0,0-.53.08.67.67,0,0,0-.34.23,1,1,0,0,0-.18.41,4.67,4.67,0,0,0-.06.6Z"/><path class="cls-6" d="M324.93,335.54l-1.08-1.61h.31l.94,1.44h0l.93-1.44h.3l-1.06,1.6,1.1,1.64h-.3l-1-1.47h0l-1,1.47h-.3Z"/><path class="cls-6" d="M327.19,333.21a.21.21,0,0,1-.15,0,.24.24,0,0,1,0-.16.3.3,0,0,1,0-.17.28.28,0,0,1,.15,0,.24.24,0,0,1,.14,0s0,.08,0,.17,0,.14,0,.16A.18.18,0,0,1,327.19,333.21Zm-.14.72h.27v3.24h-.27Z"/><path class="cls-6" d="M329.17,337.2a4.18,4.18,0,0,1-.5,0l-.43-.07v-.26a3.51,3.51,0,0,0,.42.08,4.12,4.12,0,0,0,.51,0,1,1,0,0,0,.64-.16.55.55,0,0,0,.21-.48.9.9,0,0,0,0-.25.35.35,0,0,0-.13-.19.66.66,0,0,0-.24-.14,2.34,2.34,0,0,0-.38-.13l-.43-.12a1.3,1.3,0,0,1-.29-.16.78.78,0,0,1-.16-.24.89.89,0,0,1-.05-.35.76.76,0,0,1,.28-.66,1.27,1.27,0,0,1,.76-.21,3.68,3.68,0,0,1,.49,0,1.67,1.67,0,0,1,.35.08l0,.26a1.54,1.54,0,0,0-.37-.09,3.42,3.42,0,0,0-.45,0,1,1,0,0,0-.56.15.53.53,0,0,0-.22.48.72.72,0,0,0,.05.27.38.38,0,0,0,.14.17.9.9,0,0,0,.22.11l.3.08c.18.05.33.09.46.14a1.27,1.27,0,0,1,.31.19.45.45,0,0,1,.18.25,1,1,0,0,1,.06.37.84.84,0,0,1-.26.64A1.26,1.26,0,0,1,329.17,337.2Z"/><path class="cls-6" d="M332,337h.23l.2,0v.24l-.21,0H332a2,2,0,0,1-.38,0,.43.43,0,0,1-.25-.15.6.6,0,0,1-.14-.3,2.49,2.49,0,0,1,0-.52v-2h-.52v-.24h.52v-.77h.27v.77h.89v.24h-.89v2a1.84,1.84,0,0,0,0,.36.56.56,0,0,0,.08.23.3.3,0,0,0,.17.12A.68.68,0,0,0,332,337Z"/></svg>