<?xml version="1.0" standalone="no"?><!DOCTYPE svg PUBLIC "-//W3C//DTD SVG 1.1//EN" "http://www.w3.org/Graphics/SVG/1.1/DTD/svg11.dtd"><svg t="1669819012267" class="icon" viewBox="0 0 1024 1024" version="1.1" xmlns="http://www.w3.org/2000/svg" p-id="15347" width="64" height="64" xmlns:xlink="http://www.w3.org/1999/xlink"><path d="M496.5 205.1c11.7 23.6 23.3 47.3 35 70.9 18.5 37.4 36.9 74.9 55.4 112.3 4 8.1 7.7 16.7 12.1 24.6 5.7 10.1 18.2 9.6 28.2 11 39.4 5.7 78.8 11.4 118.2 17.2 30.8 4.5 61.6 9.8 92.5 13.4 0.5 0.1 1.1 0.2 1.6 0.2-2.6-10-5.3-20.1-7.9-30.1l-57 55.5c-29.9 29.1-59.7 58.2-89.6 87.3-6.4 6.3-13.4 12.3-19.4 18.9-5.7 6.3-5.6 13.3-4.3 20.8l2.4 13.8c6.7 39.2 13.4 78.3 20.2 117.5 5.3 30.8 9.8 61.9 15.9 92.6 0.1 0.5 0.2 1.1 0.3 1.6 8.8-6.8 17.6-13.6 26.4-20.3-23.5-12.3-46.9-24.7-70.4-37l-110.7-58.2c-8-4.2-15.9-8.7-24-12.6-7.6-3.7-14.3-2.2-21.2 1.4-4.1 2.2-8.3 4.4-12.4 6.5-35.2 18.5-70.3 37-105.5 55.5-27.7 14.6-55.9 28.5-83.2 43.7-0.5 0.3-0.9 0.5-1.4 0.7 8.8 6.8 17.6 13.6 26.4 20.3 4.5-26.1 9-52.3 13.4-78.4 7-41.1 14.1-82.2 21.1-123.3 1.5-8.9 3.2-17.8 4.6-26.7 1.1-6.9 0.1-12.7-4.8-17.9-0.7-0.7-1.4-1.3-2.1-2-3.3-3.3-6.7-6.5-10-9.8-28.5-27.7-56.9-55.5-85.4-83.2-22.4-21.8-44.3-44.4-67.3-65.6-0.4-0.4-0.8-0.7-1.2-1.1-2.6 10-5.3 20.1-7.9 30.1l78.3-11.4 123.9-18c9-1.3 18.3-2 27.1-3.9 10.6-2.3 14.6-15.4 18.8-24 17.6-35.7 35.2-71.4 52.9-107.1 13.8-27.9 27.8-55.8 41.4-83.8 0.2-0.5 0.5-1 0.7-1.4 4.2-8.4 2.5-19.9-6.5-24.6-8.1-4.3-20.2-2.6-24.6 6.5l-34.8 70.5c-18.4 37.3-36.8 74.5-55.2 111.8-4.2 8.6-8.5 17.2-12.7 25.7 3.6-2.8 7.2-5.5 10.8-8.3-25.9 3.8-51.9 7.5-77.8 11.3-41.1 6-82.3 12-123.4 17.9-9.5 1.4-18.9 2.8-28.4 4.1-13.8 2-16.8 21.5-7.9 30.1 18.8 18.3 37.5 36.6 56.3 54.9 29.8 29 59.5 58 89.3 87 6.9 6.7 13.7 13.4 20.6 20-1.5-5.8-3.1-11.7-4.6-17.5-4.4 25.8-8.9 51.6-13.3 77.5-7 41-14.1 81.9-21.1 122.9-1.6 9.4-3.2 18.9-4.9 28.3-1.3 7.3 0.3 14.2 6.5 18.9 5.9 4.5 13.5 4.8 20 1.4l69.6-36.6c36.8-19.3 73.6-38.7 110.4-58 8.5-4.5 16.9-8.9 25.4-13.4h-18.2l69.6 36.6c36.8 19.3 73.6 38.7 110.4 58 8.5 4.5 16.9 8.9 25.4 13.4 6.5 3.4 14.1 3.2 20-1.4 6.1-4.7 7.7-11.6 6.5-18.9-4.4-25.8-8.9-51.6-13.3-77.5-7-41-14.1-81.9-21.1-122.9-1.6-9.4-3.2-18.9-4.9-28.3-1.5 5.8-3.1 11.7-4.6 17.5 18.8-18.3 37.5-36.6 56.3-54.9 29.8-29 59.5-58 89.3-87 6.9-6.7 13.7-13.4 20.6-20 8.8-8.6 5.8-28.1-7.9-30.1-25.9-3.8-51.9-7.5-77.8-11.3-41.1-6-82.3-12-123.4-17.9-9.5-1.4-18.9-2.8-28.4-4.1 3.6 2.8 7.2 5.5 10.8 8.3l-34.8-70.5c-18.4-37.3-36.8-74.5-55.2-111.8-4.2-8.6-8.5-17.2-12.7-25.7-4.2-8.5-16.9-11.5-24.6-6.5-9.1 5.6-11.3 15.5-6.8 24.6z" p-id="15348" fill="#efb336"></path></svg>