<?xml version="1.0" standalone="no"?><!DOCTYPE svg PUBLIC "-//W3C//DTD SVG 1.1//EN" "http://www.w3.org/Graphics/SVG/1.1/DTD/svg11.dtd"><svg t="1672894634472" class="icon" viewBox="0 0 1024 1024" version="1.1" xmlns="http://www.w3.org/2000/svg" p-id="1402" width="32" height="32" xmlns:xlink="http://www.w3.org/1999/xlink"><path d="M438.5915 871.6483c49.0076 2.7197 140.2245 2.7197 273.6323 0 149.7436 0 247.7599-1.3763 294.0477-4.096-10.8964 27.2323-20.4319 53.0883-28.5921 77.5997-291.328 2.7197-475.1043 2.7197-551.3277 0-92.5757-2.7197-170.1765-39.4875-232.8003-110.2725-57.1843 49.0076-99.3915 91.2159-126.6084 126.6084l-40.8484-85.76c19.0556-13.6161 55.808-43.5681 110.2725-89.856 8.1603-8.1603 14.976-14.976 20.4165-20.4165L156.7836 434.656256 30.176256 434.656256l0-73.535488 208.304128 0 0 416.591872C287.488 834.8959 354.1924 866.1924 438.5915 871.6483zM136.8003 22.4963C155.8559 44.288 199.424 100.096 267.4883 189.952c10.88 10.8964 17.6957 19.0556 20.4165 24.4961-2.7197 0-5.4395 1.3599-8.1603 4.0796-29.952 16.3523-50.3839 29.9684-61.2639 40.8484-54.4645-78.9443-102.1123-144.2877-142.9443-196.0325L136.8003 22.4963zM688.1444 499.9045l61.2475-40.8484c68.0643 84.4165 137.5037 179.712 208.2877 285.8885l-77.5997 53.0883c-13.6161-21.7764-28.5921-47.6477-44.9116-77.5997-133.4241 8.1756-266.8319 20.4319-400.2396 36.7524-21.7917 2.7361-44.928 8.1756-69.4241 16.3359l-36.7524-69.4241c16.3205-8.1603 35.3761-27.2159 57.1679-57.1679 51.7284-78.9596 98.0163-160.64 138.8636-245.0401L312.416256 401.8894l0-73.535488 669.775872 0 0 73.535488L618.703872 401.8894c-43.5681 78.9596-98.0163 171.5364-163.3597 277.7119 29.952 0 84.4001-2.7197 163.3597-8.1756 84.4001-5.4395 142.9443-9.5201 175.616-12.2563-21.7917-35.3915-54.4645-84.4001-98.0163-147.0239C693.5839 506.7039 690.8641 502.6243 688.1444 499.9045zM377.7597 71.3441l547.248128 0 0 77.599744L377.759744 148.943844 377.759744 71.344128z" p-id="1403" fill="#13227a"></path></svg>