<?xml version="1.0" standalone="no"?><!DOCTYPE svg PUBLIC "-//W3C//DTD SVG 1.1//EN" "http://www.w3.org/Graphics/SVG/1.1/DTD/svg11.dtd"><svg t="1670660518644" class="icon" viewBox="0 0 1024 1024" version="1.1" xmlns="http://www.w3.org/2000/svg" p-id="7235" width="64" height="64" xmlns:xlink="http://www.w3.org/1999/xlink"><path d="M391.137882 136.297412C179.651765 136.297412 7.589647 308.359529 7.589647 519.845647S179.651765 903.378824 391.137882 903.378824s383.548235-172.047059 383.548236-383.533177-172.062118-383.548235-383.548236-383.548235z m0 736.963764c-194.876235 0-353.430588-158.539294-353.430588-353.415529s158.539294-353.430588 353.430588-353.430588 353.430588 158.539294 353.430589 353.430588c0 194.861176-158.554353 353.415529-353.430589 353.415529z" p-id="7236" fill="#3f81c1"></path><path d="M311.265882 440.033882c14.125176-11.595294 34.379294-31.563294 42.420706-39.604706a764.340706 764.340706 0 0 0 40.417883-44.15247 397.643294 397.643294 0 0 0 31.412705 34.017882l19.305412 19.380706c9.562353 9.728 20.389647 20.736 28.973177 28.521412 38.716235 35.072 91.723294 66.228706 93.952 67.538823a15.043765 15.043765 0 0 0 15.209411-25.991529c-0.512-0.301176-52.510118-30.870588-88.922352-63.864471-7.936-7.198118-18.462118-17.889882-27.738353-27.301647l-19.576471-19.651764c-12.890353-12.784941-16.730353-16.64-33.189647-36.321883l0.316235-0.391529a15.058824 15.058824 0 1 0-23.762823-18.492235c-0.286118 0.346353-27.542588 35.297882-57.690353 65.445647-16.097882 16.097882-31.126588 30.162824-40.237177 37.616941-34.590118 28.385882-100.487529 78.396235-101.150117 78.893176a15.058824 15.058824 0 0 0 18.221176 24.003765c0.662588-0.542118 67.011765-50.898824 102.038588-79.646118z" p-id="7237" fill="#3f81c1"></path><path d="M577.249882 637.485176h-150.588235v-90.352941h90.352941a15.058824 15.058824 0 1 0 0-30.117647h-90.352941v-60.235294a15.058824 15.058824 0 1 0-30.117647 0v180.705882h-60.235294v-90.352941a15.058824 15.058824 0 1 0-30.117647 0v90.352941h-90.352941a15.058824 15.058824 0 1 0 0 30.117648h361.411764a15.058824 15.058824 0 1 0 0-30.117648zM697.720471 185.720471h195.764705a15.058824 15.058824 0 1 0 0-30.117647h-195.764705a15.058824 15.058824 0 1 0 0 30.117647zM998.896941 486.896941h-150.588235a15.058824 15.058824 0 1 0 0 30.117647h150.588235a15.058824 15.058824 0 1 0 0-30.117647zM788.073412 336.308706a15.058824 15.058824 0 0 0 15.058823 15.058823h180.705883a15.058824 15.058824 0 1 0 0-30.117647h-180.705883a15.058824 15.058824 0 0 0-15.058823 15.058824zM893.485176 833.249882h-195.764705a15.058824 15.058824 0 1 0 0 30.117647h195.764705a15.058824 15.058824 0 1 0 0-30.117647zM983.838118 652.544h-180.705883a15.058824 15.058824 0 1 0 0 30.117647h180.705883a15.058824 15.058824 0 1 0 0-30.117647z" p-id="7238" fill="#3f81c1"></path></svg>