<?xml version="1.0" encoding="UTF-8"?>
<svg width="1440px" height="1024px" viewBox="0 0 1440 1024" version="1.1" xmlns="http://www.w3.org/2000/svg" xmlns:xlink="http://www.w3.org/1999/xlink">
    <!-- Generator: Sketch 53.2 (72643) - https://sketchapp.com -->
    <title>Business agreement</title>
    <desc>Created with Sketch.</desc>
    <defs>
        <linearGradient x1="36.5293971%" y1="64.7346345%" x2="85.9940256%" y2="36.9215973%" id="linearGradient-1">
            <stop stop-color="#FF6E6E" offset="0%"></stop>
            <stop stop-color="#FF6E6E" offset="100%"></stop>
        </linearGradient>
        <linearGradient x1="35.978653%" y1="100%" x2="54.8209338%" y2="31.6413311%" id="linearGradient-2">
            <stop stop-color="#D1BCFF" offset="0%"></stop>
            <stop stop-color="#A587FF" offset="100%"></stop>
        </linearGradient>
    </defs>
    <g id="Business-agreement" stroke="none" stroke-width="1" fill="none" fill-rule="evenodd">
        <rect fill="#FFFFFF" x="0" y="0" width="1440" height="1024"></rect>
        <g id="Plant" transform="translate(130.000000, 587.000000)">
            <path d="M199,188.174269 C142.719017,213.593114 97.7234642,213.271218 64.0133428,187.20858 C30.3032215,161.145943 8.96544052,124.033496 0,75.8712405 C105.372053,44.2283274 171.705387,81.6626704 199,188.174269 Z" id="Shape" fill="url(#linearGradient-1)"></path>
            <path d="M115.89853,142.470656 C103.751316,135.579494 90.2443015,127.943142 75.3776565,119.561698 L40.892016,127.819418 C40.2802333,127.965912 39.665953,127.586943 39.5199824,126.972968 C39.3740118,126.358992 39.7516271,125.742511 40.3634098,125.596017 L72.451652,117.912363 C53.8970542,107.455192 33.2742461,95.8646208 10.5835455,83.1408384 C10.0344845,82.8329531 9.83808165,82.1366657 10.1448674,81.5856369 C10.4516531,81.0346081 11.145454,80.8375013 11.694515,81.1453866 C53.1251551,104.377567 87.6617264,123.831731 115.306161,139.509018 L111.739126,104.426202 C111.584986,102.910198 113.850871,102.678161 114.00501,104.194164 L117.735765,140.887202 C154.592735,161.79948 178.829942,175.796159 190.452172,182.880068 C190.989749,183.207729 191.160869,183.910705 190.834378,184.450209 C190.507888,184.989712 189.807422,185.161445 189.269845,184.833785 C182.315586,180.595068 170.826387,173.871062 154.803279,164.662373 C154.761111,164.684157 154.717118,164.703541 154.671409,164.720293 L123.156017,176.270705 C122.565224,176.487231 121.91139,176.182112 121.695637,175.589201 C121.479885,174.996291 121.783915,174.340113 122.374708,174.123587 L152.226934,163.182727 C141.98523,157.304619 129.997135,150.469451 116.262897,142.67737 C116.130357,142.632944 116.00606,142.56433 115.89853,142.470656 Z" id="Shape" fill="#FFFFFF" fill-rule="nonzero"></path>
            <path d="M186.397111,220 C128.543838,198.081935 96.8676044,166.008613 91.3684105,123.780034 C85.8692165,81.5514554 96.9446186,40.291444 124.594617,0 C221.65003,52.2763031 242.250861,125.609636 186.397111,220 Z" id="Shape" fill="url(#linearGradient-2)"></path>
            <path d="M162.563708,129.304978 C173.864256,170.239804 181.123492,197.331633 184.342806,210.585861 C184.491713,211.198925 184.118297,211.817323 183.508757,211.967091 C182.899218,212.116859 182.284375,211.741283 182.135469,211.128219 C180.209165,203.19744 176.830716,190.29204 172.000421,172.413182 C171.955362,172.398663 171.910703,172.381154 171.866683,172.360566 L141.515869,158.165964 C140.946908,157.899869 140.700146,157.220256 140.96471,156.648004 C141.229275,156.075753 141.904981,155.827563 142.473943,156.093658 L171.223049,169.539167 C168.130029,158.116906 164.47778,144.778947 160.266374,129.525569 C160.204104,129.400123 160.16465,129.263425 160.154641,129.120906 C156.429503,115.630464 152.268924,100.648399 147.672953,84.1749033 L117.541306,65.5450292 C117.006764,65.2145312 116.839813,64.5107721 117.168411,63.9731392 C117.497009,63.4355063 118.196722,63.2675903 118.731264,63.5980883 L146.768197,80.932837 C141.029686,60.375216 134.628875,37.5488955 127.565857,12.4542334 C127.394949,11.8470023 127.745829,11.2153946 128.349569,11.0434981 C128.953309,10.8716016 129.581285,11.22451 129.752193,11.8317411 C142.64846,57.6517416 153.337053,95.9093719 161.818533,126.60681 L183.96233,99.2732765 C184.919211,98.0921359 186.680736,99.5357572 185.723855,100.716898 L162.563708,129.304978 Z" id="Shape" fill="#FFFFFF" fill-rule="nonzero"></path>
            <path d="M244,259.562526 C196.223838,298.760152 152.710901,310.14864 113.461189,293.727992 C74.2114767,277.307343 44.0577471,246.99163 23,202.780852 C116.556202,144.804099 190.222869,163.731324 244,259.562526 Z" id="Shape" fill="#66D4FF"></path>
            <path d="M153.169327,234.117219 C194.134683,244.712951 221.136641,251.916434 234.18055,255.729153 C234.783886,255.905508 235.130224,256.538261 234.954118,257.142447 C234.778012,257.746634 234.146149,258.09346 233.542813,257.917105 C225.737881,255.635733 212.91513,252.1352 195.075714,247.415825 C195.040625,247.447727 195.003156,247.477791 194.963353,247.505765 L167.519981,266.793099 C167.005523,267.154663 166.29578,267.030129 165.934725,266.514946 C165.57367,265.999763 165.698028,265.289019 166.212486,264.927456 L192.207586,246.657974 C180.806972,243.649068 167.474018,240.170685 152.208998,236.222899 C152.069616,236.214438 151.931956,236.180546 151.804023,236.118173 C138.303048,232.627071 123.297489,228.770425 106.787534,224.548288 L75.6285754,241.433553 C75.0758088,241.733101 74.3852129,241.527196 74.0860862,240.97365 C73.7869596,240.420104 73.9925754,239.728535 74.545342,239.428987 L103.538169,223.717564 C82.9334951,218.451367 60.0404012,212.629201 34.8592418,206.251166 C34.2499177,206.096833 33.8808986,205.47707 34.0350147,204.866887 C34.1891308,204.256704 34.8080214,203.887165 35.4173455,204.041498 C81.3952802,215.687066 119.745108,225.479396 150.468989,233.419087 L137.984634,200.55283 C137.445158,199.132608 139.572492,198.322254 140.111968,199.742476 L153.169327,234.117219 Z" id="Shape" fill="#FFFFFF" fill-rule="nonzero"></path>
        </g>
        <g id="Ornament" transform="translate(181.000000, 143.780405)">
            <path d="M0,304.219595 L1.42108547e-14,195.219595 C1.42108547e-14,139.99112 44.771525,95.2195946 100,95.2195946 L319,95.2195946 L319,204.219595 C319,259.44807 274.228475,304.219595 219,304.219595 L0,304.219595 Z" id="Shape" fill="#ECE7FF"></path>
            <path d="M894.817615,299.798994 C894.817615,302.233765 892.843724,304.207537 890.408807,304.207537 C887.97389,304.207537 886,302.233765 886,299.798994 C886,297.364223 887.97389,295.390451 890.408807,295.390451 C892.843724,295.390451 894.817615,297.364223 894.817615,299.798994 Z M894.817615,282.164823 C894.817615,284.599593 892.843724,286.573365 890.408807,286.573365 C887.97389,286.573365 886,284.599593 886,282.164823 C886,279.730052 887.97389,277.75628 890.408807,277.75628 C892.843724,277.75628 894.817615,279.730052 894.817615,282.164823 Z M894.817615,264.530651 C894.817615,266.965422 892.843724,268.939194 890.408807,268.939194 C887.97389,268.939194 886,266.965422 886,264.530651 C886,262.09588 887.97389,260.122108 890.408807,260.122108 C892.843724,260.122108 894.817615,262.09588 894.817615,264.530651 Z M894.817615,246.89648 C894.817615,249.331251 892.843724,251.305023 890.408807,251.305023 C887.97389,251.305023 886,249.331251 886,246.89648 C886,244.461709 887.97389,242.487937 890.408807,242.487937 C892.843724,242.487937 894.817615,244.461709 894.817615,246.89648 Z M894.817615,229.262309 C894.817615,231.69708 892.843724,233.670852 890.408807,233.670852 C887.97389,233.670852 886,231.69708 886,229.262309 C886,226.827538 887.97389,224.853766 890.408807,224.853766 C892.843724,224.853766 894.817615,226.827538 894.817615,229.262309 Z M894.817615,211.628137 C894.817615,214.062908 892.843724,216.03668 890.408807,216.03668 C887.97389,216.03668 886,214.062908 886,211.628137 C886,209.193366 887.97389,207.219595 890.408807,207.219595 C892.843724,207.219595 894.817615,209.193366 894.817615,211.628137 Z M912.452844,299.798994 C912.452844,302.233765 910.478954,304.207537 908.044037,304.207537 C905.609119,304.207537 903.635229,302.233765 903.635229,299.798994 C903.635229,297.364223 905.609119,295.390451 908.044037,295.390451 C910.478954,295.390451 912.452844,297.364223 912.452844,299.798994 Z M912.452844,282.164823 C912.452844,284.599593 910.478954,286.573365 908.044037,286.573365 C905.609119,286.573365 903.635229,284.599593 903.635229,282.164823 C903.635229,279.730052 905.609119,277.75628 908.044037,277.75628 C910.478954,277.75628 912.452844,279.730052 912.452844,282.164823 Z M912.452844,264.530651 C912.452844,266.965422 910.478954,268.939194 908.044037,268.939194 C905.609119,268.939194 903.635229,266.965422 903.635229,264.530651 C903.635229,262.09588 905.609119,260.122108 908.044037,260.122108 C910.478954,260.122108 912.452844,262.09588 912.452844,264.530651 Z M912.452844,246.89648 C912.452844,249.331251 910.478954,251.305023 908.044037,251.305023 C905.609119,251.305023 903.635229,249.331251 903.635229,246.89648 C903.635229,244.461709 905.609119,242.487937 908.044037,242.487937 C910.478954,242.487937 912.452844,244.461709 912.452844,246.89648 Z M912.452844,229.262309 C912.452844,231.69708 910.478954,233.670852 908.044037,233.670852 C905.609119,233.670852 903.635229,231.69708 903.635229,229.262309 C903.635229,226.827538 905.609119,224.853766 908.044037,224.853766 C910.478954,224.853766 912.452844,226.827538 912.452844,229.262309 Z M912.452844,211.628137 C912.452844,214.062908 910.478954,216.03668 908.044037,216.03668 C905.609119,216.03668 903.635229,214.062908 903.635229,211.628137 C903.635229,209.193366 905.609119,207.219595 908.044037,207.219595 C910.478954,207.219595 912.452844,209.193366 912.452844,211.628137 Z M930.088073,299.798994 C930.088073,302.233765 928.114183,304.207537 925.679266,304.207537 C923.244349,304.207537 921.270458,302.233765 921.270458,299.798994 C921.270458,297.364223 923.244349,295.390451 925.679266,295.390451 C928.114183,295.390451 930.088073,297.364223 930.088073,299.798994 Z M930.088073,282.164823 C930.088073,284.599593 928.114183,286.573365 925.679266,286.573365 C923.244349,286.573365 921.270458,284.599593 921.270458,282.164823 C921.270458,279.730052 923.244349,277.75628 925.679266,277.75628 C928.114183,277.75628 930.088073,279.730052 930.088073,282.164823 Z M930.088073,264.530651 C930.088073,266.965422 928.114183,268.939194 925.679266,268.939194 C923.244349,268.939194 921.270458,266.965422 921.270458,264.530651 C921.270458,262.09588 923.244349,260.122108 925.679266,260.122108 C928.114183,260.122108 930.088073,262.09588 930.088073,264.530651 Z M930.088073,246.89648 C930.088073,249.331251 928.114183,251.305023 925.679266,251.305023 C923.244349,251.305023 921.270458,249.331251 921.270458,246.89648 C921.270458,244.461709 923.244349,242.487937 925.679266,242.487937 C928.114183,242.487937 930.088073,244.461709 930.088073,246.89648 Z M930.088073,229.262309 C930.088073,231.69708 928.114183,233.670852 925.679266,233.670852 C923.244349,233.670852 921.270458,231.69708 921.270458,229.262309 C921.270458,226.827538 923.244349,224.853766 925.679266,224.853766 C928.114183,224.853766 930.088073,226.827538 930.088073,229.262309 Z M930.088073,211.628137 C930.088073,214.062908 928.114183,216.03668 925.679266,216.03668 C923.244349,216.03668 921.270458,214.062908 921.270458,211.628137 C921.270458,209.193366 923.244349,207.219595 925.679266,207.219595 C928.114183,207.219595 930.088073,209.193366 930.088073,211.628137 Z M947.723302,299.798994 C947.723302,302.233765 945.749412,304.207537 943.314495,304.207537 C940.879578,304.207537 938.905688,302.233765 938.905688,299.798994 C938.905688,297.364223 940.879578,295.390451 943.314495,295.390451 C945.749412,295.390451 947.723302,297.364223 947.723302,299.798994 Z M947.723302,282.164823 C947.723302,284.599593 945.749412,286.573365 943.314495,286.573365 C940.879578,286.573365 938.905688,284.599593 938.905688,282.164823 C938.905688,279.730052 940.879578,277.75628 943.314495,277.75628 C945.749412,277.75628 947.723302,279.730052 947.723302,282.164823 Z M947.723302,264.530651 C947.723302,266.965422 945.749412,268.939194 943.314495,268.939194 C940.879578,268.939194 938.905688,266.965422 938.905688,264.530651 C938.905688,262.09588 940.879578,260.122108 943.314495,260.122108 C945.749412,260.122108 947.723302,262.09588 947.723302,264.530651 Z M947.723302,246.89648 C947.723302,249.331251 945.749412,251.305023 943.314495,251.305023 C940.879578,251.305023 938.905688,249.331251 938.905688,246.89648 C938.905688,244.461709 940.879578,242.487937 943.314495,242.487937 C945.749412,242.487937 947.723302,244.461709 947.723302,246.89648 Z M947.723302,229.262309 C947.723302,231.69708 945.749412,233.670852 943.314495,233.670852 C940.879578,233.670852 938.905688,231.69708 938.905688,229.262309 C938.905688,226.827538 940.879578,224.853766 943.314495,224.853766 C945.749412,224.853766 947.723302,226.827538 947.723302,229.262309 Z M947.723302,211.628137 C947.723302,214.062908 945.749412,216.03668 943.314495,216.03668 C940.879578,216.03668 938.905688,214.062908 938.905688,211.628137 C938.905688,209.193366 940.879578,207.219595 943.314495,207.219595 C945.749412,207.219595 947.723302,209.193366 947.723302,211.628137 Z M965.358531,299.798994 C965.358531,302.233765 963.384641,304.207537 960.949724,304.207537 C958.514807,304.207537 956.540917,302.233765 956.540917,299.798994 C956.540917,297.364223 958.514807,295.390451 960.949724,295.390451 C963.384641,295.390451 965.358531,297.364223 965.358531,299.798994 Z M965.358531,282.164823 C965.358531,284.599593 963.384641,286.573365 960.949724,286.573365 C958.514807,286.573365 956.540917,284.599593 956.540917,282.164823 C956.540917,279.730052 958.514807,277.75628 960.949724,277.75628 C963.384641,277.75628 965.358531,279.730052 965.358531,282.164823 Z M965.358531,264.530651 C965.358531,266.965422 963.384641,268.939194 960.949724,268.939194 C958.514807,268.939194 956.540917,266.965422 956.540917,264.530651 C956.540917,262.09588 958.514807,260.122108 960.949724,260.122108 C963.384641,260.122108 965.358531,262.09588 965.358531,264.530651 Z M965.358531,246.89648 C965.358531,249.331251 963.384641,251.305023 960.949724,251.305023 C958.514807,251.305023 956.540917,249.331251 956.540917,246.89648 C956.540917,244.461709 958.514807,242.487937 960.949724,242.487937 C963.384641,242.487937 965.358531,244.461709 965.358531,246.89648 Z M965.358531,229.262309 C965.358531,231.69708 963.384641,233.670852 960.949724,233.670852 C958.514807,233.670852 956.540917,231.69708 956.540917,229.262309 C956.540917,226.827538 958.514807,224.853766 960.949724,224.853766 C963.384641,224.853766 965.358531,226.827538 965.358531,229.262309 Z M965.358531,211.628137 C965.358531,214.062908 963.384641,216.03668 960.949724,216.03668 C958.514807,216.03668 956.540917,214.062908 956.540917,211.628137 C956.540917,209.193366 958.514807,207.219595 960.949724,207.219595 C963.384641,207.219595 965.358531,209.193366 965.358531,211.628137 Z M982.993761,299.798994 C982.993761,302.233765 981.01987,304.207537 978.584953,304.207537 C976.150036,304.207537 974.176146,302.233765 974.176146,299.798994 C974.176146,297.364223 976.150036,295.390451 978.584953,295.390451 C981.01987,295.390451 982.993761,297.364223 982.993761,299.798994 Z M982.993761,282.164823 C982.993761,284.599593 981.01987,286.573365 978.584953,286.573365 C976.150036,286.573365 974.176146,284.599593 974.176146,282.164823 C974.176146,279.730052 976.150036,277.75628 978.584953,277.75628 C981.01987,277.75628 982.993761,279.730052 982.993761,282.164823 Z M982.993761,264.530651 C982.993761,266.965422 981.01987,268.939194 978.584953,268.939194 C976.150036,268.939194 974.176146,266.965422 974.176146,264.530651 C974.176146,262.09588 976.150036,260.122108 978.584953,260.122108 C981.01987,260.122108 982.993761,262.09588 982.993761,264.530651 Z M982.993761,246.89648 C982.993761,249.331251 981.01987,251.305023 978.584953,251.305023 C976.150036,251.305023 974.176146,249.331251 974.176146,246.89648 C974.176146,244.461709 976.150036,242.487937 978.584953,242.487937 C981.01987,242.487937 982.993761,244.461709 982.993761,246.89648 Z M982.993761,229.262309 C982.993761,231.69708 981.01987,233.670852 978.584953,233.670852 C976.150036,233.670852 974.176146,231.69708 974.176146,229.262309 C974.176146,226.827538 976.150036,224.853766 978.584953,224.853766 C981.01987,224.853766 982.993761,226.827538 982.993761,229.262309 Z M982.993761,211.628137 C982.993761,214.062908 981.01987,216.03668 978.584953,216.03668 C976.150036,216.03668 974.176146,214.062908 974.176146,211.628137 C974.176146,209.193366 976.150036,207.219595 978.584953,207.219595 C981.01987,207.219595 982.993761,209.193366 982.993761,211.628137 Z" id="Shape" fill="#CDCBDF"></path>
            <path d="M1021.35135,834.570946 C1021.35135,703.388696 1021.35135,537.539161 1021.35135,451.868243 C915.312679,451.868243 829.351351,537.539161 829.351351,643.219595 C829.351351,748.900028 915.312679,834.570946 1021.35135,834.570946 Z" id="Shape" fill="#66D4FF" transform="translate(925.351351, 643.219595) scale(1, -1) rotate(-270.000000) translate(-925.351351, -643.219595) "></path>
            <path d="M1101.21959,588.439189 C1101.21959,531.730196 1101.21959,460.034824 1101.21959,423 C1055.37996,423 1018.21959,460.034824 1018.21959,505.719595 C1018.21959,551.404365 1055.37996,588.439189 1101.21959,588.439189 Z" id="Shape" fill="#FF6E6E" transform="translate(1059.719595, 505.719595) rotate(-270.000000) translate(-1059.719595, -505.719595) "></path>
            <path d="M1041.21959,124.439189 C1041.21959,67.7301955 1041.21959,-3.96517601 1041.21959,-41 C995.37996,-41 958.219595,-3.96517601 958.219595,41.7195946 C958.219595,87.4043652 995.37996,124.439189 1041.21959,124.439189 Z" id="Shape" fill="#FF6E6E" transform="translate(999.719595, 41.719595) rotate(-270.000000) translate(-999.719595, -41.719595) "></path>
            <path d="M1110.59661,137.816205 C1110.59661,98.7394581 1110.59661,49.335974 1110.59661,23.8162048 C1079.00967,23.8162048 1053.40339,49.335974 1053.40339,80.8162048 C1053.40339,112.296436 1079.00967,137.816205 1110.59661,137.816205 Z" id="Shape" fill="#FFB0E1" transform="translate(1082.000000, 80.816205) rotate(-270.000000) translate(-1082.000000, -80.816205) "></path>
            <path d="M248.231293,551.219595 C141.512596,551.219595 55,637.75862 55,744.509917 L248.231293,744.509917 L248.231293,551.219595 Z" id="Shape" fill="#211D41"></path>
        </g>
        <g id="Folder" transform="translate(345.000000, 84.000000)">
            <path d="M50,0 L664,-3.55271368e-15 C675.045695,-5.58177493e-15 684,8.954305 684,20 L684,319 L30,319 L30,20 C30,8.954305 38.954305,2.02906125e-15 50,0 Z" id="Shape" fill="#A587FF"></path>
            <path d="M70,20 L684,20 C695.045695,20 704,28.954305 704,40 L704,339 L50,339 L50,40 C50,28.954305 58.954305,20 70,20 Z" id="Shape" fill="#FFDEE1"></path>
            <path d="M99,70 L324,70 L324,98 L99,98 L99,70 Z M99,129 L654,129 L654,157 L99,157 L99,129 Z M99,188 L654,188 L654,216 L99,216 L99,188 Z M99,248 L654,248 L654,276 L99,276 L99,248 Z M99,307 L654,307 L654,335 L99,335 L99,307 Z" id="Shape" fill="#FFF3F4"></path>
            <path d="M20,268 L202.883456,268 C208.186129,268 213.271758,270.105824 217.02221,273.854483 L275.195539,332 L733,332 C744.045695,332 753,340.954305 753,352 L753,784 C753,795.045695 744.045695,804 733,804 L20,804 C8.954305,804 0,795.045695 0,784 L0,288 C0,276.954305 8.954305,268 20,268 Z" id="Shape" fill="#FF95D7" fill-rule="nonzero"></path>
            <path d="M20,288 L202.883456,288 C208.186129,288 213.271758,290.105824 217.02221,293.854483 L275.195539,352 L733,352 C744.045695,352 753,360.954305 753,372 L753,784 C753,795.045695 744.045695,804 733,804 L20,804 C8.954305,804 1.13686838e-13,795.045695 1.13686838e-13,784 L1.13686838e-13,308 C1.13686838e-13,296.954305 8.954305,288 20,288 Z" id="Shape" fill="#FFB0E1" fill-rule="nonzero"></path>
        </g>
        <g id="Suitcase" transform="translate(333.000000, 542.000000)">
            <path d="M160,0 L261.5,0 C275.307119,0 286.5,11.1928813 286.5,25 L286.5,286 C286.5,299.807119 275.307119,311 261.5,311 L160,311 C146.192881,311 135,299.807119 135,286 L135,25 C135,11.1928813 146.192881,0 160,0 Z M165,281 L256.5,281 L256.5,30 L165,30 L165,281 Z" id="Shape" fill="#211D41" fill-rule="nonzero"></path>
            <path d="M10,65 L411.5,65 C417.022847,65 421.5,69.4771525 421.5,75 L421.5,336 C421.5,341.522847 417.022847,346 411.5,346 L10,346 C4.4771525,346 0,341.522847 0,336 L0,75 C0,69.4771525 4.4771525,65 10,65 Z" id="Shape" fill="#FF6E6E"></path>
            <path d="M20,65 L401.5,65 L401.5,186 C401.5,191.522847 397.022847,196 391.5,196 L30,196 C24.4771525,196 20,191.522847 20,186 L20,65 Z M30,215 L391.5,215 C397.022847,215 401.5,219.477153 401.5,225 L401.5,316 C401.5,321.522847 397.022847,326 391.5,326 L30,326 C24.4771525,326 20,321.522847 20,316 L20,225 C20,219.477153 24.4771525,215 30,215 Z" id="Shape" fill="#FF9292"></path>
            <path d="M64,156 L96,156 C98.209139,156 100,157.790861 100,160 L100,252 C100,254.209139 98.209139,256 96,256 L64,256 C61.790861,256 60,254.209139 60,252 L60,160 C60,157.790861 61.790861,156 64,156 Z M326,156 L358,156 C360.209139,156 362,157.790861 362,160 L362,252 C362,254.209139 360.209139,256 358,256 L326,256 C323.790861,256 322,254.209139 322,252 L322,160 C322,157.790861 323.790861,156 326,156 Z" id="Shape" fill="#211D41"></path>
            <path d="M60,186 L100,186 C105.522847,186 110,190.477153 110,196 L110,216 C110,221.522847 105.522847,226 100,226 L60,226 C54.4771525,226 50,221.522847 50,216 L50,196 C50,190.477153 54.4771525,186 60,186 Z M60,196 L60,216 L100,216 L100,196 L60,196 Z M322,186 L362,186 C367.522847,186 372,190.477153 372,196 L372,216 C372,221.522847 367.522847,226 362,226 L322,226 C316.477153,226 312,221.522847 312,216 L312,196 C312,190.477153 316.477153,186 322,186 Z M322,196 L322,216 L362,216 L362,196 L322,196 Z" id="Shape" fill="#FFBABA" fill-rule="nonzero"></path>
        </g>
        <g id="Men" transform="translate(1109.308123, 320.766078)">
            <polygon id="Shape" fill="#FE9F9F" points="166.319784 531.233922 166.319784 552.848828 144.691877 552.848828 144.691877 531.233922"></polygon>
            <path d="M167.156993,551.233922 L167.156993,555.724355 C167.156993,559.363193 167.156993,563.002032 167.156993,566.64087 C167.156993,569.291837 165.00796,571.44087 162.356993,571.44087 L119.750369,571.44087 C118.061211,571.44087 116.691877,569.765508 116.691877,567.698843 C116.691877,559.653729 122.799122,558.605518 130.05029,556.037234 L144.440398,551.233922 L167.156993,551.233922 Z" id="Shape" fill="#211D41"></path>
            <polygon id="Shape" fill="#FE9F9F" points="232.49385 531.233922 232.49385 552.848828 210.865943 552.848828 210.865943 531.233922"></polygon>
            <polygon id="Shape" fill="#211D41" points="140.865906 544.411148 130.691877 256.986432 201.543524 255.233922 168.994538 544.411148"></polygon>
            <path d="M120.358895,113.726985 L152.825895,158.512541 L128.79545,189.844419 C123.619282,196.593319 115.257754,200.098557 106.816295,199.058305 C78.4348191,195.560824 48.2446939,193.352856 16.2459188,192.434399 C13.8052244,194.007438 8.38991809,193.724538 9.9475983e-14,191.585701 L3.10835247,175.102327 C8.21908933,176.200422 13.2927327,176.573374 18.3292825,176.221184 C38.9262034,175.0867 67.4483296,172.161679 103.895661,167.446122 L120.358895,113.726985 Z" id="Shape" fill="#211D41"></path>
            <path d="M233.33106,551.233922 L233.33106,555.724355 C233.33106,559.363193 233.33106,563.002032 233.33106,566.64087 C233.33106,569.291837 231.182026,571.44087 228.53106,571.44087 L185.924435,571.44087 C184.235277,571.44087 182.865943,569.765508 182.865943,567.698843 C182.865943,559.653729 188.973188,558.605518 196.224356,556.037234 L210.614464,551.233922 L233.33106,551.233922 Z" id="Shape" fill="#211D41"></path>
            <polygon id="Shape" fill="#6937FF" points="207.039972 544.411148 154.691877 256.986432 225.543524 255.233922 235.168604 544.411148"></polygon>
            <path d="M157.374345,79.2914499 L170.346203,78.1565594 C193.453895,76.1348983 213.825261,93.2285037 215.846922,116.336196 C215.851197,116.385057 215.855386,116.433925 215.859489,116.482801 L227.743749,258.030335 L130.505588,266.537572 L119.357013,131.704742 C116.515711,99.2285193 129.188156,81.757422 157.374345,79.2914499 Z" id="Shape" fill="#00ADFF"></path>
            <polygon id="Shape" fill="#221E41" points="184.040749 226.903895 165.04951 130.527309 203.031987 115.233455 203.031987 201.456437"></polygon>
            <path d="M185.972938,286.14928 C181.015522,293.394991 175.914368,296.447701 170.669476,295.307409 C162.802137,293.596971 160.176121,288.807962 161.338029,286.14928 C162.112634,284.376825 163.538777,281.144281 165.616459,276.451649 C161.734166,283.57967 159.793019,285.187938 159.793019,281.276452 C159.793019,279.047983 159.987816,274.428424 162.802137,271.828425 C164.678351,270.095092 167.43287,267.88921 171.065693,265.21078 C175.207598,249.383709 184.494125,225.527181 188.767718,194.798038 L172.890308,157.06042 L210.457313,147.885702 L218.702188,186.17892 C219.906712,191.773315 218.702188,200.290163 216.531074,205.788787 C203.02909,238.666037 194.160329,260.472859 189.924793,271.209253 C188.658146,274.419996 188.540588,281.703417 185.972938,286.14928 Z" id="Shape" fill="#FE9F9F"></path>
            <path d="M143.317418,87.5694786 C139.596055,75.9349344 135.616577,69.7982206 131.378981,69.1593371 C125.022588,68.2010119 121.026517,67.9229272 120.267255,61.6751158 C119.507993,55.4273044 117.370209,53.7926318 114.562031,53.2176193 C111.753853,52.6426067 108.779162,49.2950286 114.913086,43.3855513 C119.002368,39.4458998 120.096222,32.1625617 118.194647,21.5355371 C141.911556,6.66102538 157.433108,7.92872294 164.759305,25.3386298 C172.085502,42.7485367 171.1307,57.3101537 167.012884,69.1593371 L169.781884,80.2651897 C167.935884,86.7461693 163.617455,91.4740898 156.826599,94.4489513 C150.035742,97.4238127 145.532682,95.1306552 143.317418,87.5694786 Z" id="Shape" fill="#FE9F9F"></path>
            <path d="M169.90527,68.8957955 C161.889791,70.6357693 157.001136,70.3958989 155.239306,68.1761842 C152.596561,64.8466122 150.703688,58.2077326 150.557445,55.9999954 C150.411202,53.7922582 153.040193,54.0760948 154.942016,53.6019171 C156.843839,53.1277393 158.729043,48.1110918 155.956396,45.3840434 C153.18375,42.656995 150.583789,43.8406754 149.396899,44.7435718 C148.210009,45.6464683 144.614197,44.8429583 144.389489,39.3788485 C144.16478,33.9147386 145.34212,28.4510008 141.880086,29.3141829 C138.418051,30.177365 118.464491,32.7895809 114.158078,19.8767971 C109.851664,6.96401334 115.634201,-2.40273481 129.403263,0.545429632 C143.172325,3.49359408 146.984232,1.9498564 156.755676,1.75397943 C166.527119,1.55810245 176.37665,1.85253976 182.367355,17.581687 C188.358061,33.3108342 183.938089,43.177191 177.95077,50.9209329 C171.963451,58.6646748 174.120828,60.0422518 173.892498,63.5254211 C173.740278,65.8475339 172.411202,67.6376587 169.90527,68.8957955 Z" id="Shape" fill="#221E41"></path>
            <path d="M169.30106,159.867279 L214.019147,148.484494 C206.240619,112.779965 195.061826,95.8864653 180.482768,97.8039955 C158.614181,100.680291 158.173557,115.518128 161.002642,128.427678 C162.8887,137.034045 165.654839,147.513912 169.30106,159.867279 Z" id="Shape" fill="#00ADFF"></path>
            <path d="M220.931033,537.146023 L219.937122,537.256211 L219.16581,530.298835 L220.159721,530.188648 L220.931033,537.146023 Z M219.057846,520.249539 L218.063936,520.359727 L217.292623,513.402351 L218.286534,513.292164 L219.057846,520.249539 Z M217.18466,503.353055 L216.190749,503.463243 L215.419437,496.505867 L216.413348,496.39568 L217.18466,503.353055 Z M215.311473,486.456571 L214.317563,486.566759 L213.54625,479.609383 L214.540161,479.499195 L215.311473,486.456571 Z M213.438287,469.560087 L212.444376,469.670275 L211.673064,462.712899 L212.666975,462.602711 L213.438287,469.560087 Z M211.5651,452.663603 L210.57119,452.773791 L209.799877,445.816415 L210.793788,445.706227 L211.5651,452.663603 Z M209.691914,435.767119 L208.698003,435.877307 L207.926691,428.919931 L208.920602,428.809743 L209.691914,435.767119 Z M207.818727,418.870635 L206.824817,418.980823 L206.053504,412.023447 L207.047415,411.913259 L207.818727,418.870635 Z M205.945541,401.974151 L204.95163,402.084339 L204.180318,395.126963 L205.174229,395.016775 L205.945541,401.974151 Z M204.072354,385.077667 L203.078444,385.187855 L202.307131,378.230479 L203.301042,378.120291 L204.072354,385.077667 Z M202.199168,368.181183 L201.205257,368.291371 L200.433945,361.333995 L201.427856,361.223807 L202.199168,368.181183 Z M200.325981,351.284699 L199.332071,351.394887 L198.560758,344.437511 L199.554669,344.327323 L200.325981,351.284699 Z M198.452795,334.388215 L197.458884,334.498403 L196.687572,327.541027 L197.681483,327.430839 L198.452795,334.388215 Z M196.579608,317.491731 L195.585698,317.601918 L194.814385,310.644543 L195.808296,310.534355 L196.579608,317.491731 Z M194.706422,300.595247 L193.712511,300.705434 L192.941199,293.748059 L193.93511,293.637871 L194.706422,300.595247 Z M192.833235,283.698763 L191.839325,283.80895 L191.452054,280.315703 L192.445965,280.205515 L192.833235,283.698763 Z" id="Shape" fill="#A587FF" fill-rule="nonzero"></path>
        </g>
        <g id="Women" transform="translate(885.000000, 318.000000)">
            <polygon id="Shape" fill="#FE9F9F" points="89.372093 534 111 534 111 555.614907 89.372093 555.614907"></polygon>
            <path d="M195.549901,223.686251 L202.881896,224.492908 C203.64021,225.301184 203.599709,226.571156 202.791433,227.32947 C202.395754,227.700691 201.866624,227.895879 201.32466,227.87054 L200.933897,227.85227 C207.403331,234.176614 208.864445,238.896918 205.317239,242.013183 C201.770033,245.129448 194.13246,245.218881 185.153922,239.247251 C182.952993,237.144298 181.169011,235.555858 179.801976,234.48193 C179.335939,234.115816 178.840193,233.72254 178.334624,233.318502 L126.434916,191.834747 L119.706178,95.1492627 L126.434916,106.21007 L153.732334,180.583667 L191.934864,221.205854 C194.000863,222.877257 195.205876,223.704056 195.549901,223.686251 Z" id="Shape" fill="#211D41"></path>
            <path d="M88.5348837,554 L111.251479,554 L125.641587,558.803313 C132.892755,561.371596 139,562.419808 139,570.464921 C139,572.531586 137.630667,574.206949 135.941508,574.206949 L93.3348837,574.206949 C90.6839169,574.206949 88.5348837,572.057916 88.5348837,569.406949 L88.5348837,554 Z" id="Shape" fill="#211D41"></path>
            <polygon id="Shape" fill="#FE9F9F" points="23.1980268 534 44.8259338 534 44.8259338 555.614907 23.1980268 555.614907"></polygon>
            <polygon id="Shape" fill="#211D41" points="114.825972 547.177226 86.6973392 547.177226 54.1483527 258 125 259.752511"></polygon>
            <path d="M22.3608175,554 L45.0774132,554 L59.4675206,558.803313 C66.718689,561.371596 72.8259338,562.419808 72.8259338,570.464921 C72.8259338,572.531586 71.4566003,574.206949 69.7674419,574.206949 L27.1608175,574.206949 C24.5098507,574.206949 22.3608175,572.057916 22.3608175,569.406949 L22.3608175,554 Z" id="Shape" fill="#211D41"></path>
            <polygon id="Shape" fill="#6937FF" points="48.6519053 547.177226 20.5232729 547.177226 30.1483527 258 101 259.752511"></polygon>
            <path d="M98.3175318,82.0575283 C123.129981,84.2283363 136.294701,121.006779 137.892106,132.713437 C140.016085,148.279118 132.270133,164.334705 132.270133,164.334705 C132.270133,164.334705 129.908852,199.324354 125.186289,269.30365 L27.9481282,260.796414 L39.8323877,119.24888 C39.8364913,119.200004 39.8406805,119.151135 39.8449553,119.102274 C41.8666164,95.9945821 62.237982,78.9009767 85.3456739,80.9226378 C89.6696265,81.3009346 93.9935792,81.6792315 98.3175318,82.0575283 Z" id="Shape" fill="#00ADFF"></path>
            <path d="M112.374459,90.335557 C110.159195,97.8967336 105.656135,100.189891 98.8652783,97.2150297 C92.0744217,94.2401682 87.7559934,89.5122477 85.9099933,83.0312681 L88.6789934,71.9254155 C84.5611769,60.0762321 83.6063752,45.5146151 90.9325721,28.1047082 C98.258769,10.6948013 113.780322,9.42710378 137.49723,24.3016155 C135.595655,34.9286401 136.689509,42.2119782 140.778791,46.1516297 C146.912715,52.061107 143.938025,55.4086851 141.129846,55.9836977 C138.321668,56.5587102 136.183884,58.1933828 135.424622,64.4411942 C134.66536,70.6890056 130.669289,70.9670903 124.312896,71.9254155 C120.075301,72.564299 116.095822,78.7010128 112.374459,90.335557 Z" id="Shape" fill="#FE9F9F"></path>
            <path d="M79.0912584,61.1843448 C85.1704177,70.3924663 91.0794108,72.5704329 96.8182379,67.7182445 C105.426479,60.439962 103.143893,55.0972905 98.9206022,53.4706099 C94.6973116,51.8439294 93.8337986,43.1113403 98.9206022,41.7823453 C104.007406,40.4533502 107.141095,47.4403744 108.587894,41.7823453 C110.034693,36.1243161 107.654293,30.2960736 114.254391,30.2960736 C120.854489,30.2960736 136.23301,32.7877165 139.277757,22.6601446 C142.322505,12.5325728 134.310214,7.10542736e-15 116.615408,7.10542736e-15 C98.9206022,7.10542736e-15 82.3392101,8.71725051 75.7096127,24.1413428 C71.2898811,34.424071 72.4170964,46.7717383 79.0912584,61.1843448 Z" id="Shape" fill="#221E41"></path>
            <path d="M79.1604014,28.6596879 C71.5366979,24.4006484 66.4874379,26.379596 64.0126212,34.5965309 C60.3003961,46.9219332 68.7505479,63.1090005 41.9000321,66.5959335 C15.0495162,70.0828665 14.2943914,95.0687789 28.0972117,105.974501 C0.926735142,86.3759372 -6.53801037,67.1164657 5.70297522,48.1960869 C24.0644536,19.8155186 43.169102,46.6077131 51.9531285,25.2263449 C57.8091462,10.9720995 68.5389177,10.9720995 84.1424433,25.2263449 L79.1604014,28.6596879 Z" id="Shape" fill="#221E41"></path>
            <polygon id="Shape" fill="#221E41" points="131.122851 188.575054 129.082802 174.344466 103.512496 135.548101 58.6177866 141.78312 125.156245 269.322296"></polygon>
            <path d="M107.148674,141.440974 L118.393183,169.854793 C157.930071,174.967777 187.996976,178.091511 208.593897,179.225996 C213.630447,179.578186 218.040976,178.865348 221.825483,177.087484 L224.829234,170.450934 C227.170527,170.614653 228.935799,172.645366 228.77208,174.986659 C228.762032,175.130344 228.744686,175.273426 228.720109,175.41535 L228.239118,178.192859 C241.977854,178.908665 248.063889,182.391239 246.497221,188.64058 C244.930554,194.889922 237.053576,198.183863 222.866286,198.522404 C217.180964,198.039981 213.117955,197.012249 210.677261,195.439211 C178.3596,196.36682 146.262207,198.100589 114.385082,200.640517 C105.582721,201.341878 97.1062019,197.152966 92.3164067,189.734655 L74.097285,161.517353 L107.148674,141.440974 Z" id="Shape" fill="#FE9F9F"></path>
            <path d="M102.433712,125.784418 L118.393183,169.854793 C157.930071,174.967777 187.996976,178.091511 208.593897,179.225996 L210.677261,195.439211 C178.167694,196.372329 145.881017,198.121208 113.817232,200.68585 C105.317701,201.36569 97.095634,197.484845 92.2181142,190.49099 L57.6559618,140.932464 L102.433712,125.784418 Z" id="Shape" fill="#00ADFF"></path>
            <path d="M34.6193208,540.91694 L33.6244552,540.815735 L34.3328891,533.851676 L35.3277547,533.952881 L34.6193208,540.91694 Z M36.3398033,524.004225 L35.3449377,523.90302 L36.0533717,516.938961 L37.0482373,517.040166 L36.3398033,524.004225 Z M38.0602858,507.09151 L37.0654202,506.990305 L37.7738542,500.026246 L38.7687198,500.12745 L38.0602858,507.09151 Z M39.7807684,490.178794 L38.7859028,490.077589 L39.4943367,483.11353 L40.4892023,483.214735 L39.7807684,490.178794 Z M41.5012509,473.266079 L40.5063853,473.164874 L41.2148193,466.200815 L42.2096849,466.30202 L41.5012509,473.266079 Z M43.2217334,456.353364 L42.2268678,456.252159 L42.9353018,449.2881 L43.9301674,449.389304 L43.2217334,456.353364 Z M44.942216,439.440648 L43.9473503,439.339443 L44.6557843,432.375384 L45.6506499,432.476589 L44.942216,439.440648 Z M46.6626985,422.527933 L45.6678329,422.426728 L46.3762669,415.462669 L47.3711325,415.563874 L46.6626985,422.527933 Z M48.383181,405.615218 L47.3883154,405.514013 L48.0967494,398.549954 L49.091615,398.651158 L48.383181,405.615218 Z M50.1036635,388.702502 L49.1087979,388.601297 L49.8172319,381.637238 L50.8120975,381.738443 L50.1036635,388.702502 Z M51.8241461,371.789787 L50.8292805,371.688582 L51.5377145,364.724523 L52.5325801,364.825728 L51.8241461,371.789787 Z M53.5446286,354.877072 L52.549763,354.775867 L53.258197,347.811808 L54.2530626,347.913012 L53.5446286,354.877072 Z M55.2651111,337.964356 L54.2702455,337.863151 L54.9786795,330.899092 L55.9735451,331.000297 L55.2651111,337.964356 Z M56.9855937,321.051641 L55.9907281,320.950436 L56.699162,313.986377 L57.6940277,314.087582 L56.9855937,321.051641 Z M58.7060762,304.138926 L57.7112106,304.037721 L58.4196446,297.073662 L59.4145102,297.174866 L58.7060762,304.138926 Z M60.4265587,287.22621 L59.4316931,287.125005 L60.1401271,280.160946 L61.1349927,280.262151 L60.4265587,287.22621 Z" id="Shape" fill="#A587FF" fill-rule="nonzero"></path>
        </g>
    </g>
</svg>