<svg id="visual" viewBox="0 0 1920 540" width="1920" height="540" xmlns="http://www.w3.org/2000/svg" xmlns:xlink="http://www.w3.org/1999/xlink" version="1.1"><path d="M0 195L175 239L349 82L524 195L698 136L873 109L1047 152L1222 93L1396 82L1571 147L1745 114L1920 71L1920 0L1745 0L1571 0L1396 0L1222 0L1047 0L873 0L698 0L524 0L349 0L175 0L0 0Z" fill="#00cc8e"></path><path d="M0 271L175 330L349 168L524 298L698 190L873 158L1047 190L1222 195L1396 163L1571 255L1745 233L1920 125L1920 69L1745 112L1571 145L1396 80L1222 91L1047 150L873 107L698 134L524 193L349 80L175 237L0 193Z" fill="#00b98a"></path><path d="M0 357L175 368L349 260L524 374L698 266L873 239L1047 282L1222 287L1396 233L1571 325L1745 276L1920 212L1920 123L1745 231L1571 253L1396 161L1222 193L1047 188L873 156L698 188L524 296L349 166L175 328L0 269Z" fill="#00a784"></path><path d="M0 455L175 455L349 428L524 498L698 471L873 482L1047 482L1222 417L1396 449L1571 422L1745 406L1920 422L1920 210L1745 274L1571 323L1396 231L1222 285L1047 280L873 237L698 264L524 372L349 258L175 366L0 355Z" fill="#00957c"></path><path d="M0 541L175 541L349 541L524 541L698 541L873 541L1047 541L1222 541L1396 541L1571 541L1745 541L1920 541L1920 420L1745 404L1571 420L1396 447L1222 415L1047 480L873 480L698 469L524 496L349 426L175 453L0 453Z" fill="#038373"></path></svg>