<svg id="visual" viewBox="0 0 960 540" width="960" height="540" xmlns="http://www.w3.org/2000/svg" xmlns:xlink="http://www.w3.org/1999/xlink" version="1.1"><rect x="0" y="0" width="960" height="540" fill="#002233"></rect><path d="M0 142L22.8 135.7C45.7 129.3 91.3 116.7 137 125.3C182.7 134 228.3 164 274 167.8C319.7 171.7 365.3 149.3 411.2 136.2C457 123 503 119 548.8 122.8C594.7 126.7 640.3 138.3 686 139.5C731.7 140.7 777.3 131.3 823 131.8C868.7 132.3 914.3 142.7 937.2 147.8L960 153L960 0L937.2 0C914.3 0 868.7 0 823 0C777.3 0 731.7 0 686 0C640.3 0 594.7 0 548.8 0C503 0 457 0 411.2 0C365.3 0 319.7 0 274 0C228.3 0 182.7 0 137 0C91.3 0 45.7 0 22.8 0L0 0Z" fill="#0066FF" stroke-linecap="round" stroke-linejoin="miter"></path></svg>