<?xml version="1.0" ?><!DOCTYPE svg  PUBLIC '-//W3C//DTD SVG 1.1//EN'  'http://www.w3.org/Graphics/SVG/1.1/DTD/svg11.dtd'><svg enable-background="new 0 0 126 126" id="Layer_1" version="1.1" viewBox="0 0 126 126" xml:space="preserve" xmlns="http://www.w3.org/2000/svg" xmlns:xlink="http://www.w3.org/1999/xlink"><g><g><g><path d="M19.2468,86.0891c1.413-0.2057,14.8281,4.1895,16.25,10.1994     c1.422,6.0183,12.1541,12.2824,16.724,10.7352s10.5618,0.1074,10.5618,0.1074l3.774,1.8244l0.8586,0.4113h0.0089L125,76.1237     L60.9665,38.9038L5.0183,71.2081c-1.565,0.903-2.8707,2.2445-3.5504,3.917C-2.3061,84.3542,17.9501,86.2681,19.2468,86.0891z" fill="#F3F6FD"/><g><path d="M76.9514,86.9479l-0.0091,3.0312c-0.0091,0.8191-0.5461,1.6476-1.6293,2.2756      c-2.1846,1.2742-5.7436,1.2742-7.9373,0l-13.2166-7.6277v-0.5551l-4.3874-2.5307l0.0091-2.7578l5.6708,3.2676v0.2911      l11.9332,6.8908c2.1937,1.2649,5.7527,1.2649,7.9373,0C76.4053,88.6048,76.9514,87.7763,76.9514,86.9479z" fill="#E1E9F4"/></g><path d="M70.2594,83.6591c-0.2351-0.1827-2.4378,0.1271-2.8427,0.0791c-0.1959-0.016-0.3983-0.024-0.6073-0.016     c-1.0645,0.016-1.489,0.096-1.8873,0.2867c-0.2938,0.1356-0.5355-1.7676-0.5486-1.5685     c-0.0066,0.008-0.2612-0.3818-0.2808-0.3662c-0.9404-0.0156-1.2081,0.1991-1.5804,0.3742     c-0.2873,0.1356-0.9665,3.2801-0.9861,3.4792c0,0-1.4889,1.3138-1.8611,2.6432c-0.1176,0.4218-0.5546,0.7836-1.1985,1.3045     c-1.2914,1.044-1.4985,3.4241-2.5434,4.833c-0.2589,0.3431-0.4612,0.5911-0.6285,0.7893     c-0.4492,0.5325-0.5401,1.2791-0.227,1.9014c-0.0457,0.112-0.0653,0.2156-0.1959,0.3107     c-0.0979,0.072-0.2416,0.1276-0.3396,0.1991c-0.0849,0.0636-0.1371,0.1356-0.1828,0.1991     c-0.0849,0.1351-0.1763,0.2627-0.2678,0.3978c-0.0588,0.096-0.1371,0.2076-0.0718,0.2947     c0.0392,0.048,0.1241,0.0876,0.1763,0.1436c0,0,0,0,0.0066,0c-0.1502,0.4773,0.1502,0.6209,0.1502,0.6209     c0.5812,0.7085,3.657,0.2707,4.0097-0.3898c0.0457-0.096,0.0718-0.1756,0.0718-0.2391c0.0849-0.1116,0.1829-0.2707,0.2416-0.4058     c0.0718-0.1756,0.3004-0.9236,0-1.2502c-0.0718-0.0876-0.2612-0.0796-0.4963-0.0236c0.0196-0.064,0.0327-0.1196,0.0588-0.1831     c0.2743-0.08,1.2081-0.3662,1.9656-0.5418c0.0653-0.016,0.1241-0.0316,0.1763-0.0476c0.1046,0.016,0.2156,0.024,0.3331,0.024     c1.3584,0.048,3.3893-0.1831,3.5918-0.1276c0.2155,0.064,1.1624,0.2227,1.4563,0.2471c0.3003,0.0156,1.4759,0.1191,1.4759,0.1191     c0.0718-0.016,0.1306-0.0396,0.1828-0.0556c0.0131,0.0236,0,0.0636,0.0392,0.1196c0.0784,0.1111,0.2024,0.2147,0.3657,0.3102     c0.0066,0.008,0.0196,0.016,0.0327,0.016h0.0065c0.0653,0,0.1437-0.032,0.1567-0.072c0.0066-0.0076,0.0131-0.016,0.0066-0.0236     l-0.0588-0.1276c-0.0065-0.032,0.0327-0.0716,0.0914-0.0876c0.0327,0,0.0653,0,0.0849,0.008     c0.1698,0.0636,0.3004,0.0796,0.5159,0.1116c0.0196,0,0.0327,0.008,0.0522,0.008c0.0523-0.008,0.1176-0.04,0.1306-0.072h0.0131     c0.0588,0.0084,0.1698-0.0476,0.1763-0.0871c0.0261,0,0.0392-0.008,0.0588-0.016c0.0457-0.032,0.0522-0.048,0.0457-0.08     c-0.0066-0.0155-0.0196-0.0236-0.0457-0.0316c0.1306-0.0476,0.0457-0.0956,0.0392-0.1036     c-0.2612-0.0876-0.431-0.2067-1.0122-0.2547c-0.0523,0-0.098-0.008-0.1372-0.016l-0.1044-0.0156c0.0065-0.032,0-0.048,0-0.048     c-0.1046-0.0876-2.573-0.5333-2.7167-0.6213c-0.0783-0.0471-1.3518-0.1747-2.6448-0.2067     c0.3853-0.2707,0.2155-0.6289-0.0261-0.7885c-0.1371-0.0871-0.4245-0.5173-0.4114-0.716     c0.0261-0.3502,0.5616-1.0667,0.849-1.4329c0.3853-0.4858,0.9077-1.0351,0.9077-1.0351c-0.0392-0.0156-0.0849-0.04-0.1241-0.0636     c0.209-0.2947,0.7183-1.1942,0.7249-2.8183c0-0.2627,0.0653-0.5413,0.1828-0.82c0.2481-0.5973,0.4898-1.2738,0.7183-1.7671     h0.0327c1.0971-0.048,0.8816-0.3267,0.8816-0.3267c-0.0914-0.0716-0.2417-0.1276-0.4245-0.1751     c0.7248-0.1991,2.3559-0.6569,3.2832-0.6805C70.2035,84.7294,70.2594,83.6591,70.2594,83.6591z" fill="#E1E9F4"/><g><g><g enable-background="new    "><g><path d="M54.4686,66.5211c0.0091,0.8738-0.6098,1.9387-1.3654,2.376L48.634,71.482l1.7385,1.0014         l-0.0091,0.6098l-7.8554,4.5694l-8.0465-4.6516l0.0091-0.6098l2.7762-1.62l-7.0817-4.1143v-0.7374l0.4187-0.2458         l0.5461-0.3093l-0.0091-0.5827l-0.9558-0.5551l-0.0091-0.728l9.5848-5.5343c0.3732-0.2187,0.7282-0.2369,0.974-0.0911         l13.2804,7.7188c0.0273,0.0182,0.0546,0.0271,0.0728,0.0453C54.3138,65.7842,54.4686,66.0935,54.4686,66.5211z" fill="#E1E9F4"/></g></g></g></g><g><path d="M48.347,57.9831l5.759-3.3468c0.3449-0.2005,0.7708-0.2011,1.1163-0.0016l38.6085,22.2906      c0.7411,0.4279,0.7427,1.4971,0.0027,1.9271l-4.8863,2.8396c-0.8847,0.5141-1.9768,0.5157-2.863,0.0041l-37.7344-21.786      C47.6086,59.4823,47.6071,58.4131,48.347,57.9831z" fill="#E1E9F4"/></g><polygon fill="#FDFEFF" points="11.6224,67.3948 48.0675,88.2939 56.7887,83.2586 20.3433,62.3595 20.8668,62.0573      57.3123,82.9564 84.5136,67.2517 48.067,46.3518 48.5905,46.0496 85.0371,66.9495 93.7536,61.9168 57.3067,41.0169      57.8302,40.7147 122.1114,77.7914 121.5878,78.094 94.166,62.1566 85.4495,67.1888 112.8715,83.1263 112.348,83.4289      84.9259,67.491 76.1293,72.57 103.5515,88.5074 103.1789,88.7227 75.7566,72.7853 66.8845,77.9075 94.307,93.8454      93.9391,94.0576 66.5166,78.1197 57.7247,83.1961 85.1473,99.134 84.6238,99.4361 57.2011,83.4983 48.4799,88.5336      75.9028,104.4715 75.3792,104.7737 11.0989,67.697    "/></g><g><g><g><g><g enable-background="new    "><g><path d="M70.33,36.3051l0.0696-16.4453l-3.5774-2.0654l-0.0724,17.1075          C67.923,35.3371,69.1455,35.7828,70.33,36.3051z" fill="#6B9EF9"/></g><g><path d="M54.0163,28.8122l0.0152-3.5854l-1.2195-0.7042l-0.0155,3.6604          C53.2041,28.3903,53.6101,28.6014,54.0163,28.8122z" fill="#4C4A8B"/></g><g><path d="M66.1624,34.6827c0.1937,0.0729,0.3903,0.1459,0.5873,0.2191l0.0724-17.1075l-12.7906,7.4325          l-0.0152,3.5854C58.0185,30.8901,61.9693,33.1029,66.1624,34.6827z" fill="#3887E5"/></g><g><polygon fill="#FFFFFF" points="70.3996,21.6065 58.838,28.325 55.2605,26.2596 66.8222,19.5411         "/></g><g><path d="M66.1624,34.6827c1.3472,0.5076,2.7842,1.0123,4.1675,1.6224l0.0696-16.4453L58.838,26.5782          l-0.0201,4.7406C61.2214,32.5565,63.6477,33.7353,66.1624,34.6827z" fill="#DEE7F8"/></g><g><path d="M66.1624,34.6827c2.016,0.7595,4.2328,1.5119,6.1675,2.6261l0.0735-17.4484          c0,0.151-0.1031,0.3022-0.3023,0.4192l-13.2764,7.7165l-0.014,3.3192C61.2166,32.5541,63.6452,33.7341,66.1624,34.6827z" fill="#3887E5"/></g><g><path d="M72.0981,19.4367c0.4036,0.233,0.4058,0.6104,0.0047,0.8434l-13.2765,7.715l-1.2173-0.7028          l1.229-0.7142l11.5616-6.7185l-3.5774-2.0654l-12.7906,7.4327l-1.2195-0.7041l13.2765-7.715          c0.401-0.233,1.0525-0.233,1.4583,0.0013L72.0981,19.4367z" fill="#A6C2FF"/></g><g><path d="M58.8123,31.3158l0.0141-3.3207l-1.2173-0.703l-0.0144,3.3921          C57.9999,30.8966,58.4059,31.1065,58.8123,31.3158z" fill="#4C4A8B"/></g></g></g><g><g enable-background="new    "><g><polygon fill="#4C4A8B" points="79.6819,23.393 79.6025,42.1443 76.025,40.0789 76.1044,21.3276         "/></g><g><path d="M63.2938,33.4864l0.02-4.726l-1.2195-0.7042l-0.0207,4.8773          C62.478,33.124,62.8863,33.3041,63.2938,33.4864z" fill="#4C4A8B"/></g><g><path d="M66.1624,34.6827c3.3984,1.2806,7.3706,2.5344,9.5857,5.557l0.2769-0.1608l0.0794-18.7513          l-12.7906,7.4328l-0.02,4.726C64.2405,33.91,65.1934,34.3176,66.1624,34.6827z" fill="#3A3A77"/></g><g><polygon fill="#FFFFFF" points="79.6819,25.14 68.1202,31.8584 64.5428,29.793 76.1044,23.0745         "/></g><g><path d="M76.4757,41.4128c0.082,0.1626,0.1319,0.3287,0.1609,0.4939          c0.67,0.2453,1.3366,0.5127,2.0041,0.7965l0.9618-0.5589l0.0794-18.7513l-11.5617,6.7185l-0.0224,5.2926          C71.4029,36.6489,74.8343,38.1582,76.4757,41.4128z" fill="#DEE7F8"/></g><g><path d="M76.4757,41.4128c0.082,0.1626,0.1319,0.3287,0.1609,0.4939          c1.1298,0.4136,2.2504,0.8855,3.3813,1.4059l1.2865-0.7473c0.1993-0.1167,0.2989-0.268,0.3023-0.4189l0.079-18.7528          c0,0.1513-0.1031,0.3025-0.3023,0.4192l-13.2764,7.7168l-0.0163,3.8718C71.398,36.6469,74.8331,38.1558,76.4757,41.4128z" fill="#3A3A77"/></g><g><path d="M81.3804,22.9701c0.4036,0.233,0.4058,0.6104,0.0047,0.8434l-13.2765,7.715l-1.2173-0.7028          l1.229-0.7142l11.5617-6.7185l-3.5774-2.0654l-12.7906,7.4327l-1.2195-0.7041l13.2765-7.715          c0.401-0.2331,1.0525-0.233,1.4583,0.0013L81.3804,22.9701z" fill="#6262AA"/></g><g><path d="M68.0922,35.402l0.0164-3.8736l-1.2173-0.7027l-0.0175,4.1222          C67.2754,35.0968,67.6831,35.2478,68.0922,35.402z" fill="#4C4A8B"/></g></g></g><g><g enable-background="new    "><g><path d="M81.0005,43.7747c0.3998,0.1929,0.8137,0.3859,1.2297,0.5845l0.0541-12.7807l-3.5774-2.0657          L78.651,42.7073C79.4307,43.0393,80.2116,43.3942,81.0005,43.7747z" fill="#3887E5"/></g><g><path d="M76.4757,41.4128c0.082,0.1626,0.1319,0.3287,0.1609,0.4939          c0.6734,0.2465,1.3435,0.5154,2.0144,0.8006l0.0558-13.1946l-10.3232,5.9988          C71.5989,36.7368,74.8816,38.252,76.4757,41.4128z" fill="#1E72C6"/></g><g><path d="M73.7815,38.2663l8.5027-4.941l-3.5774-2.0654l-8.5514,4.9693          C71.4463,36.7883,72.6924,37.4385,73.7815,38.2663z" fill="#FFFFFF"/></g><g><path d="M76.4757,41.4128c0.082,0.1626,0.1319,0.3287,0.1609,0.4939          c1.4561,0.533,2.8962,1.1603,4.3638,1.868c0.3998,0.1929,0.8137,0.3859,1.2297,0.5845l0.0541-12.7807l-9.9075,5.7574          C74.0782,38.3231,75.5582,39.5936,76.4757,41.4128z" fill="#DEE7F8"/></g><g><path d="M76.4757,41.4128c0.082,0.1626,0.1319,0.3287,0.1609,0.4939          c1.4561,0.533,2.8962,1.1603,4.3638,1.868c1.0511,0.507,2.1977,1.0108,3.2295,1.6301l0.0582-13.8258          c0,0.1513-0.1031,0.3022-0.3023,0.4192l-10.459,6.0789C74.7368,38.9478,75.7723,40.0182,76.4757,41.4128z" fill="#1E72C6"/></g><g><path d="M68.3837,35.5116l10.3231-5.9988l3.5774,2.0657l-9.9076,5.7571          c0.3972,0.2307,0.7819,0.477,1.1504,0.742l10.4605-6.0786c0.4011-0.2331,0.3989-0.6104-0.0047-0.8435l-4.5513-2.6275          c-0.4058-0.2343-1.0573-0.2343-1.4583-0.0015L66.9035,34.959C67.391,35.1397,67.8865,35.3222,68.3837,35.5116z" fill="#6B9EF9"/></g></g></g><g><g enable-background="new    "><g><path d="M89.0407,33.286l-0.0473,20.0587c1.311,1.1686,1.6726,2.8556,1.8384,4.6867          c0.2166,2.3926-0.0247,4.8019,0.0087,7.1987c0.0132,0.9456,0.0332,1.8912,0.055,2.8369l1.6433,0.9486l0.0794-33.6641          L89.0407,33.286z" fill="#4C4A8B"/></g><g><path d="M82.0416,37.3531h0.9866v7.3967c1.1642,0.5871,2.2865,1.255,3.1102,2.1494          c0.6073,0.4225,1.1948,0.867,1.737,1.3598c0.7852,0.7134,0.5626,2.3179-0.4426,2.7207          c-0.0284,0.4112-0.0861,0.8369-0.174,1.2627c0.3208,0.1721,0.6561,0.3513,1.0267,0.5749          c0.2651,0.1602,0.496,0.3385,0.7079,0.5273l0.0473-20.0587L82.0416,37.3531z" fill="#3A3A77"/></g><g><polygon fill="#FFFFFF" points="83.0281,42.6709 92.6182,37.0982 89.0408,35.0329 83.0281,38.5268         "/></g><g><path d="M83.0282,40.9239v3.8259c1.1642,0.5871,2.2865,1.255,3.1102,2.1494          c0.6073,0.4225,1.1948,0.867,1.737,1.3598c0.7852,0.7134,0.5626,2.3179-0.4426,2.7207          c-0.0284,0.4112-0.0861,0.8369-0.174,1.2627c0.3208,0.1721,0.6561,0.3513,1.0267,0.5749          c1.9049,1.1502,2.3537,3.087,2.5463,5.214c0.2166,2.3926-0.0247,4.8019,0.0087,7.1987          c0.022,1.5718,0.0607,3.1429,0.1003,4.7138l1.598-0.9283l0.0794-33.6641L83.0282,40.9239z" fill="#DEE7F8"/></g><g><path d="M94.3198,35.7712l-11.2916,6.5631v2.4156c1.1642,0.5871,2.2865,1.255,3.1102,2.1494          c0.6073,0.4225,1.1948,0.867,1.737,1.3598c0.7852,0.7134,0.5626,2.3179-0.4426,2.7207          c-0.0284,0.4112-0.0861,0.8369-0.174,1.2627c0.3208,0.1721,0.6561,0.3513,1.0267,0.5749          c1.9049,1.1502,2.3537,3.087,2.5463,5.214c0.2166,2.3926-0.0247,4.8019,0.0087,7.1987          c0.0284,2.0353,0.0844,4.0695,0.1347,6.1039l3.2655-1.8972c0.1993-0.117,0.2989-0.2683,0.3024-0.4195l0.079-33.6653          C94.6221,35.5032,94.519,35.6542,94.3198,35.7712z" fill="#3A3A77"/></g><g><path d="M94.3167,34.9284l-4.5513-2.6277c-0.4058-0.2344-1.0573-0.2344-1.4583-0.0013l-8.6967,5.0536h2.4312          l6.9991-4.0672l3.5774,2.0653l-9.59,5.5727v1.4103l11.2933-6.5624C94.7225,35.5388,94.7203,35.1615,94.3167,34.9284z" fill="#6262AA"/></g></g></g></g><g><g><g><g enable-background="new    "><g><polygon fill="#83A1CC" points="71.8284,75.7768 82.0859,69.8159 82.0744,71.1401 71.8169,77.101          "/></g><g><polygon fill="#DEE7F8" points="55.0899,66.1128 63.0687,61.4761 79.8072,71.1401 71.8284,75.7768          "/></g><g><polygon fill="#9EB5DF" points="71.8284,75.7768 71.8169,77.101 55.0784,67.437 55.0899,66.1128          "/></g></g></g><g><g><g enable-background="new    "><g><path d="M71.9147,61.4117v10.1952l1.4122-0.8206v-8.5405C72.8569,61.9662,72.3886,61.683,71.9147,61.4117z            " fill="#83A1CC"/></g><g><path d="M63.4534,56.917v9.8049l8.4613,4.885V61.4117C69.1402,59.8236,66.3033,58.369,63.4534,56.917z" fill="#9EB5DF"/></g></g></g></g><g><g><g enable-background="new    "><g><path d="M92.1323,44.0382l-0.0757,32.2699c-0.003,0.4756-0.1696,0.8088-0.4392,0.9664l-1.0342,0.6058            c-0.2756,0.1696-0.6603,0.1514-1.0843-0.0939L50.1029,55.0415c-0.8269-0.4816-1.4993-1.6448-1.4963-2.5988l0.0788-32.2701            c0-0.5027,0.1878-0.848,0.4877-0.9905c-0.0182,0.0061-0.0363,0.0152-0.0515,0.0243l1.0494-0.612            c0.2756-0.1605,0.6512-0.1362,1.0692,0.1031l39.396,22.7448C91.466,41.9209,92.1353,43.0839,92.1323,44.0382z" fill="#83A1CC"/></g><path d="M91.0867,44.6527l-0.0786,32.2638c0,0.9562-0.6812,1.349-1.5065,0.8648L50.109,55.0446           c-0.8383-0.4848-1.5064-1.6509-1.5064-2.6071l0.0786-32.2638c0-0.9562,0.6811-1.3362,1.5064-0.8648L89.5802,42.059           C90.4186,42.5304,91.0867,43.6965,91.0867,44.6527z" fill="#B6CBEA"/><polygon fill="#3A3A77" points="49.9584,20.6533 49.8963,49.9601 89.7442,72.9679 89.8063,43.6607          "/><path d="M67.9766,61.5995c-0.4971-0.2869-0.9012-0.0565-0.9028,0.5147s0.3998,1.2665,0.8969,1.5534           c0.4971,0.2869,0.9012,0.0569,0.9028-0.5144C68.8752,62.582,68.4737,61.8867,67.9766,61.5995z" fill="#83A1CC"/></g></g></g></g><g><g><polygon fill="#83A1CC" points="76.311,37.9931 76.311,39.7328 75.2745,39.7328 75.2745,38.1073        "/><g><polygon fill="#9EB5DF" points="87.1128,45.632 87.0444,68.2062 60.8922,53.1072 60.9606,30.533         "/></g><g><polygon fill="#83A1CC" points="87.9332,45.1552 87.8648,67.7294 87.0444,68.2062 87.1128,45.632         "/></g><g><path d="M76.1508,37.7687c0.2127,0.1228,0.2138,0.3202,0.0025,0.443l-0.1229,0.0714l11.9028,6.8721          l-0.8204,0.4768l-0.6993-0.4037L61.6613,30.9375l-0.7007-0.4045l0.8204-0.4768l11.9028,6.8721l0.1229-0.0714          c0.2113-0.1228,0.5536-0.122,0.7649,0L76.1508,37.7687z" fill="#DEE7F8"/></g></g><g><g enable-background="new    "><g><path d="M73.1499,40.0601l-0.0664,20.5632c-1.5093-0.4598-6.0934-1.8918-13.583-6.216l0.0664-20.5632           C67.0565,38.1683,71.6406,39.6003,73.1499,40.0601z" fill="#DEE7F8"/></g><g><path d="M83.5987,47.7189l-0.0664,20.5632c-7.4909-4.3249-9.6501-6.786-10.4488-7.6588l0.0664-20.5632           C73.9486,40.9329,76.1078,43.394,83.5987,47.7189z" fill="#DEE7F8"/></g><path d="M73.152,40.0703c-0.1194-0.0359-0.2627-0.0837-0.4119-0.1315v20.5837          c0.1254,0.0417,0.2448,0.0775,0.3463,0.1076c0.1373,0.1551,0.3343,0.3702,0.591,0.6328V40.6314          C73.4565,40.3985,73.2774,40.2076,73.152,40.0703z" fill="#9EB5DF"/><g><polygon fill="#B6CBEA" points="86.0815,46.2761 86.0151,66.8393 83.5323,68.2822 83.5987,47.7189          "/></g><g><path d="M86.0815,46.2761l-2.4828,1.4428c-7.4909-4.3249-9.6501-6.786-10.4488-7.6588           c-1.5093-0.4598-6.0934-1.8918-13.583-6.216l2.4828-1.4428L86.0815,46.2761z" fill="#FFFFFF"/></g></g><g><g><g><path d="M60.8792,36.3477v0.6856c3.8527,2.1401,7.409,3.7815,10.607,4.8936v-0.6357            C68.2913,40.1639,64.7353,38.5059,60.8792,36.3477z" fill="#B6CBEA"/></g><g><path d="M82.1538,48.6247c-4.0573-2.4442-6.2695-4.2103-7.5158-5.3617v0.8033            c1.3626,1.2007,3.6369,2.9379,7.5158,5.2544V48.6247z" fill="#B6CBEA"/></g></g><g><g><path d="M60.8792,53.2136v0.6859c3.8536,2.1404,7.4098,3.7818,10.607,4.8933V58.157            C68.292,57.0304,64.7359,55.3724,60.8792,53.2136z" fill="#B6CBEA"/></g><g><path d="M82.1538,65.4904c-4.0573-2.4439-6.2695-4.21-7.5158-5.3611v0.8033            c1.3627,1.2007,3.637,2.9377,7.5158,5.2538V65.4904z" fill="#B6CBEA"/></g></g><g><g><path d="M60.8792,50.4025v0.6859c3.8536,2.1404,7.4098,3.7818,10.607,4.8933v-0.6355            C68.292,54.2193,64.7359,52.5613,60.8792,50.4025z" fill="#B6CBEA"/></g><g><path d="M82.1538,62.6795c-4.0573-2.4439-6.2695-4.2103-7.5158-5.3614v0.8033            c1.3626,1.2007,3.6369,2.9376,7.5158,5.2541V62.6795z" fill="#B6CBEA"/></g></g><g><g><path d="M60.8792,47.5917v0.6856c3.8527,2.1401,7.409,3.7815,10.607,4.8936v-0.6357            C68.2913,51.4079,64.7353,49.7499,60.8792,47.5917z" fill="#B6CBEA"/></g><g><path d="M82.1538,59.8687c-4.0573-2.4442-6.2695-4.2103-7.5158-5.3617v0.8034            c1.3626,1.2007,3.6369,2.9379,7.5158,5.2544V59.8687z" fill="#B6CBEA"/></g></g><g><g><path d="M60.8792,44.7805v0.6856c3.8527,2.1401,7.409,3.7818,10.607,4.8936v-0.6357            C68.2913,48.5967,64.7353,46.939,60.8792,44.7805z" fill="#B6CBEA"/></g><g><path d="M82.1538,57.0575c-4.0573-2.4439-6.2695-4.21-7.5158-5.3614v0.8034            c1.3626,1.2007,3.6369,2.9379,7.5158,5.2541V57.0575z" fill="#B6CBEA"/></g></g><g><g><path d="M60.8792,41.9697v0.6859c3.8527,2.1398,7.409,3.7812,10.607,4.893v-0.6355            C68.2913,45.7862,64.7353,44.1279,60.8792,41.9697z" fill="#B6CBEA"/></g><g><path d="M82.1538,54.2464c-4.0573-2.4439-6.2695-4.21-7.5158-5.3611v0.8031            c1.3626,1.2007,3.6369,2.9379,7.5158,5.2541V54.2464z" fill="#B6CBEA"/></g></g><g><g><path d="M60.8792,39.1585v0.6859c3.8527,2.1398,7.409,3.7815,10.607,4.8933v-0.6357            C68.2913,42.975,64.7353,41.317,60.8792,39.1585z" fill="#B6CBEA"/></g><g><path d="M82.1538,51.4355c-4.0573-2.4439-6.2695-4.2103-7.5158-5.3614v0.8034            c1.3626,1.2007,3.6369,2.9376,7.5158,5.2541V51.4355z" fill="#B6CBEA"/></g></g></g></g></g><g><g><polygon fill="#B6CBEA" points="51.1128,28.6798 51.1128,29.6719 58.3252,33.8358 58.3281,32.8454        "/></g><g enable-background="new    "><g><polygon fill="#B6CBEA" points="51.1128,43.8245 51.1128,44.8165 54.0159,46.4926 54.0187,45.5022         "/></g><g><polygon fill="#B6CBEA" points="51.1128,38.7771 51.1128,39.7694 55.5552,42.334 55.5581,41.3436         "/></g><g><polygon fill="#DEE7F8" points="51.1128,41.3006 51.1128,42.293 57.851,46.1831 57.8538,45.1927         "/></g><g><polygon fill="#DEE7F8" points="51.1128,31.2034 51.1128,32.1954 53.0668,33.3236 53.0696,32.3331         "/></g><g><polygon fill="#B6CBEA" points="51.1128,33.7269 51.1128,34.7192 54.913,36.9133 54.9158,35.9226         "/></g><g><polygon fill="#DEE7F8" points="56.8945,39.5885 51.1128,36.2504 51.1128,37.2456 56.8945,40.5837         "/></g></g><g><polygon fill="#DEE7F8" points="51.1128,26.156 51.1128,27.148 57.1356,30.6254 57.1384,29.6349        "/></g><g><polygon fill="#DEE7F8" points="51.1128,46.348 51.1128,47.34 55.6992,49.988 55.702,48.9975        "/></g></g></g></g><g><g><g><g enable-background="new    "><g><path d="M30.1648,62.67l13.3585,7.7641l0.4182-0.2416l9.1628-5.2874          c0.4052-0.2352,0.732-0.8039,0.732-1.2678c-0.0065-0.2352-0.085-0.3986-0.2157-0.4704l-13.3585-7.7644          c0.1307,0.0785,0.2156,0.2419,0.2156,0.4707c0,0.464-0.3268,1.0327-0.732,1.2678l-9.1627,5.2871L30.1648,62.67z" fill="#A6C2FF"/></g><g><polygon fill="#FFFFFF" points="43.4735,68.2282 31.1249,61.052 31.1297,62.7397 43.4783,69.9159         "/></g><g><polygon fill="#EAEFFA" points="53.0968,63.2154 39.7389,55.4527 30.5757,60.743 43.9336,68.5058         "/></g><g><path d="M53.6191,63.1648L40.2612,55.402c-0.1337-0.0777-0.3186-0.067-0.5223,0.0506l13.3579,7.7628          C53.3005,63.0978,53.4854,63.0871,53.6191,63.1648z" fill="#EAEFFA"/></g><g><path d="M30.1583,60.2454l13.3585,7.7641l9.581-5.529c0.3791-0.2221,0.7255-0.2419,0.9738-0.0916          L40.713,54.6248c-0.2483-0.1436-0.5947-0.1241-0.9738,0.0916L30.1583,60.2454z" fill="#A6C2FF"/></g><g><path d="M43.4735,68.2282l0.0048,1.6877l9.1632-5.2904c0.4048-0.2337,0.7333-0.8028,0.732-1.2679          c-0.0013-0.4651-0.332-0.6535-0.7368-0.4199L43.4735,68.2282z" fill="#DEE7F8"/></g><g><path d="M43.5184,68.0107l0.0021,0.7336l0.4131-0.2385l9.1632-5.2904          c0.4048-0.2337,0.7355-0.0453,0.7368,0.4199c0.0013,0.4651-0.3272,1.0342-0.732,1.2679l-9.1632,5.2904l-0.4131,0.2385          l0.0021,0.7385l9.5763-5.5289c0.7594-0.4385,1.3708-1.5022,1.3683-2.375c-0.0025-0.8678-0.6179-1.2233-1.3773-0.7848          L43.5184,68.0107z" fill="#1E72C6"/></g></g></g><g><polygon fill="#6B9EF9" points="43.5184,68.0107 30.1605,60.248 30.1626,60.9815 43.5205,68.7443       "/></g><polygon fill="#6B9EF9" points="43.5253,70.432 30.1674,62.6693 30.1695,63.4078 43.5274,71.1705      "/></g><g><g><g><path d="M37.0396,57.2866l-0.0013,4.0637c-0.0023,0.8018,0.527,1.605,1.5869,2.2171         c2.1068,1.2164,5.5112,1.2164,7.6042,0c1.0397-0.6043,1.56-1.3947,1.5622-2.1862l0.0013-4.0946H37.0396z" fill="#2A2A5E"/></g></g><g><g enable-background="new    "><g><polygon fill="#3A3A77" points="42.519,61.3432 50.373,56.779 50.3617,57.3941 42.5077,61.9583         "/></g><g><polygon fill="#6262AA" points="34.4696,56.6959 42.3235,52.1316 50.373,56.779 42.519,61.3432         "/></g><g><polygon fill="#4C4A8B" points="42.519,61.3432 42.5077,61.9583 34.4582,57.3109 34.4696,56.6959         "/></g></g></g><g><path d="M46.312,61.455c-0.1263,0.2186-0.2755,0.5255-0.2755,0.6939c0,0.2798,0.2269,0.5066,0.5067,0.5066        c0.2798,0,0.5067-0.2268,0.5067-0.5066c0-0.1684-0.1492-0.4754-0.2755-0.6939H46.312z" fill="#B6CBEA"/><g><path d="M46.7973,61.2786l-0.0002,0.1465c-0.0001,0.0374-0.0247,0.0748-0.0739,0.1034         c-0.0987,0.0574-0.2598,0.0575-0.3594,0c-0.0499-0.0288-0.0748-0.0667-0.0747-0.1046l0.0002-0.1465         c-0.0001,0.0379,0.0248,0.0758,0.0747,0.1046c0.0996,0.0575,0.2607,0.0574,0.3594,0         C46.7726,61.3534,46.7972,61.316,46.7973,61.2786z" fill="#9EB5DF"/></g><g><path d="M46.7223,61.1738c0.0996,0.0575,0.1002,0.1507,0.0012,0.2082c-0.0987,0.0574-0.2598,0.0575-0.3594,0         c-0.0994-0.0574-0.0996-0.1507-0.0009-0.208C46.4621,61.1164,46.6229,61.1164,46.7223,61.1738z" fill="#DEE7F8"/></g></g><g><g><path d="M46.6665,61.2604c0,0.0208-0.0124,0.0413-0.0372,0.0536c-0.0537,0.0331-0.1363,0.0331-0.19,0         c-0.0248-0.0123-0.0372-0.0329-0.0372-0.0536l-0.0083-2.168l-4.1448-2.4094l0.1321-0.2355l4.2811,2.4879L46.6665,61.2604z" fill="#9EB5DF"/></g></g><g><g enable-background="new    "><g><path d="M43.6504,56.5357l-0.0009,0.327c-0.0005,0.1818-0.1201,0.3634-0.3591,0.5022          c-0.4797,0.2788-1.2623,0.2795-1.7464,0c-0.2427-0.1401-0.3637-0.3243-0.3632-0.5082l0.0009-0.327          c-0.0005,0.1839,0.1205,0.3681,0.3632,0.5082c0.4841,0.2795,1.2667,0.2788,1.7464,0          C43.5303,56.8991,43.6499,56.7175,43.6504,56.5357z" fill="#9EB5DF"/></g><g><path d="M43.2856,56.0264c0.4841,0.2795,0.4867,0.7321,0.0057,1.0116c-0.4797,0.2788-1.2623,0.2795-1.7464,0          c-0.4828-0.2788-0.4841-0.7321-0.0044-1.0109C42.0215,55.7476,42.8028,55.7476,43.2856,56.0264z" fill="#DEE7F8"/></g></g></g></g></g><g><g><g><polygon fill="#DEE7F8" points="61.649,76.0188 55.4499,79.6199 49.7857,76.3498 55.9824,72.7463       "/></g><g><polygon fill="#83A1CC" points="57.8161,74.7225 56.6606,75.394 55.0875,74.4858 56.243,73.8143       "/></g><g><polygon fill="#83A1CC" points="54.3558,76.7333 53.2003,77.4048 51.6273,76.4966 52.7828,75.8251       "/></g><g><polygon fill="#9EB5DF" points="55.4506,79.6202 55.4391,82.3788 49.7731,79.1076 49.7846,76.3489       "/></g></g><g><g enable-background="new    "><g><path d="M74.8559,84.9199l-0.0172,4.5326c0.0012-0.4187-0.2757-0.8382-0.8305-1.1585         c-1.0994-0.6347-2.8736-0.6348-3.9659,0c-0.5441,0.3162-0.8163,0.7292-0.8175,1.1425l0.0172-4.5326         c0.0012-0.4134,0.2734-0.8263,0.8175-1.1425c1.0923-0.6348,2.8665-0.6348,3.9659,0         C74.5802,84.0817,74.8571,84.5012,74.8559,84.9199z" fill="#3887E5"/></g><g><path d="M74.0254,83.7613c-0.3106-0.1793-0.6774-0.3021-1.0651-0.3802v4.5355         c0.3814,0.0784,0.7419,0.2007,1.0479,0.3775c0.5547,0.3203,0.8316,0.7398,0.8305,1.1584l0.0172-4.5326         C74.8571,84.5013,74.5802,84.0816,74.0254,83.7613z" fill="#1E72C6"/></g><g><path d="M76.9514,84.517l-0.0124,3.0281c-0.0025,0.8262-0.545,1.6499-1.63,2.2796         c-2.185,1.2717-5.7363,1.2717-7.9337,0.0024l-13.2121-7.6276l0.0099-3.0256l13.2121,7.6276         c2.1974,1.2692,5.7512,1.2667,7.9362-0.0026C76.4039,86.1694,76.9489,85.3433,76.9514,84.517z" fill="#1E72C6"/></g><g><path d="M75.2947,82.2051c2.1974,1.2687,2.209,3.3255,0.0258,4.5941         c-2.1848,1.2696-5.7371,1.2706-7.9345,0.0019l-13.2117-7.6278l7.9087-4.596L75.2947,82.2051z M70.432,85.8499         c0.9003,0.5198,2.3501,0.5198,3.2446,0c0.8926-0.5187,0.8878-1.3584-0.0125-1.8782c-0.8984-0.5187-2.3481-0.5187-3.2406,0         C69.5289,84.4915,69.5336,85.3313,70.432,85.8499" fill="#A6C2FF"/></g></g></g></g><g><g><g><g><g><g><g><path d="M67.3994,80.3743c-0.8208,0.7844-2.8599,0.8774-2.8599,0.8774v0.093            c0,0.1238-0.0929,0.2581-0.2013,0.2889l-1.1099,0.1137c-0.1084,0.031-0.16-0.0517-0.1755-0.1754            c-0.0568-0.5576-0.0981-1.2389-0.0465-1.4249c0.0723-0.2374,0.5575,0.5679,1.6313-0.5626            c0.8621,0.2632,1.9978-0.0257,2.4831-0.1858C67.6575,79.2229,68.2253,79.5843,67.3994,80.3743z" fill="#2A2A5E"/></g><g><g><g><g><g><g><path d="M65.3706,72.3158c-0.1652,0.5626-0.2581,1.1408-0.3046,1.7294                 c-0.1239,1.683-0.351,4.9765-0.2839,5.7663c-0.3356,0.5679-0.9757,0.6453-1.7603,0.4852                 c0,0-0.8724-3.8974-0.5162-6.6283c0.1187-0.888,0.1807-1.7811,0.1136-2.6742                 c-0.0774-1.0841-0.2581-2.4778-0.6608-3.6754c-0.795-2.354,0.191-3.9184,0.4078-4.3209l3.9853,1.2699                 C66.3514,64.2678,66.6818,67.8297,65.3706,72.3158z" fill="#3A3A77"/></g><path d="M70.5639,83.3373c-0.9447,0.4852-3.3607-0.1444-3.3607-0.1444v0.1598                c0,0.124-0.1084,0.2221-0.2323,0.2168l-1.2699-0.0978c-0.1239-0.0053-0.2117-0.1137-0.1962-0.2377                c0.0516-0.4799,0.1807-1.5898,0.2426-1.7551c0.0826-0.2064,0.4491,0.4441,1.6777-0.2891                c0.7847,0.5059,2.2611,1.0531,2.8135,1.0738C70.853,82.2789,71.5034,82.8468,70.5639,83.3373z" fill="#2A2A5E"/><g><path d="M68.0601,73.7457c-0.1652,0.5679-0.2581,1.1461-0.2994,1.7294                 c-0.1291,1.6828-0.3562,4.9765-0.2891,5.7713c-0.3356,0.5679-0.9757,0.6453-1.7604,0.4855                 c0,0-0.8518-3.8097-0.5265-6.5356c0.1136-0.9705,0.1858-1.9409,0.0929-2.9167                 c-0.1032-1.1408-0.3252-2.5864-0.8157-3.7427c-0.9344-2.2096-0.3097-4.45-0.0878-4.8475l4.6667,2.0082                 C69.041,65.6978,69.3766,69.2647,68.0601,73.7457z" fill="#4C4A8B"/></g></g></g></g></g></g></g></g></g></g></g><path d="M61.6252,52.4534c-0.126,1.3649-0.0946,3.0384,0.0102,4.9839c0.0198,0.0048,0.4276,3.474,1.6947,5.3801      c0.9183-0.0624,1.0139-0.2478,1.1344-0.5142c-0.5522-1.7567-0.6571-3.1626-0.6102-5.1954      c0.0146-0.509,0.2549-2.2477,0.6843-3.8274c0.1607-0.5824-0.1005-1.2486-0.6227-1.6435      C62.9698,50.9266,61.7225,51.3963,61.6252,52.4534z" fill="#3887E5"/><path d="M69.4404,54.5481c-1.1569-0.5269-0.04-0.7115-0.8035-1.3372c-0.7021-0.5755-2.7194-1.4229-2.7194-1.4229      s-1.0367,0.4166-2.2859-0.5682c0,0-1.9694-0.2446-1.9694,1.5358c0,0.7799,0.0065,1.459,0.1247,2.1892      c0.4844,2.9958,0.4982,6.0717,0.0282,9.0701c-0.0052,0.0329-0.0097,0.0632-0.0135,0.091c0,0,4.8628,4.1146,7.2395,1.5918      c0,0-0.1079-1.0069-0.2358-2.2573c-0.1172-1.1474-0.347-4.8286,0.8436-6.3269C70.3354,56.2494,70.6439,55.0959,69.4404,54.5481z      " fill="#6B9EF9"/><path d="M68.7988,47.7739c-0.1446-0.4997-0.1116-1.0915-0.1116-1.0915l-2.8617,0.3513      c0,0-0.2867,6.3158,1.5068,4.3461C69.1259,49.4095,68.9434,48.2736,68.7988,47.7739z" fill="#ECB4BF"/><path d="M68.7988,47.4506c-0.2997,0.2676-0.5323,0.5548-0.6608,0.9082      c-0.1285,0.3644-0.3212,0.6639-0.8565,0.6853c-0.5246,0.0319-0.3319,0.5782-0.182,0.8777c0,0.011,0,0.011,0,0.0214      c0.8779,1.8092-1.2205,5.0534-2.9548,4.0256c-0.1713-0.1072-0.3319-0.2253-0.4603-0.3644      c-0.1177-0.1176-0.1605-0.2676-0.1713-0.4281c-0.0321-0.5457-0.0964-3.1798-0.182-3.4579      c-0.4817-1.6702-0.0428-3.3832,1.1348-4.2499c1.0492-0.782,2.184-0.5572,3.2653-0.0857      C68.5448,45.7362,69.013,46.562,68.7988,47.4506z" fill="#A0533F"/><g><path d="M78.3534,47.7566c-0.2469-0.0835-0.5014-0.1383-0.6085-0.0593       c-0.014,0.0103-0.0248-0.0369-0.0248-0.0989c-0.0062-0.1177,0.1301-0.8428,0.1797-1.0906       c0.0062-0.0681-0.0248-0.1485-0.0743-0.1858c0-0.0064-0.0062-0.0064-0.0062-0.0064c-0.0372-0.0248-0.0743-0.0124-0.093,0.0868       c-0.0434,0.1982-0.2726,0.5887-0.2912,1.2204c-0.0124,0.3782-0.0496,0.4278-0.0743,0.403       c-0.0186-0.0124-0.031-0.0496-0.031-0.0496c-0.0062-0.0188-0.0867-0.3406-0.1053-0.4275c0-0.062-0.1301-0.409-0.2788-0.5267       c-0.0434-0.0309-0.0868-0.0433-0.1363-0.0248c0.0062,0.0061,0.0434,0.1609,0.1115,0.3222       c0.0619,0.1673,0.1177,0.694,0.1177,0.7249c0,0.0124,0.0124,0.3037,0.1425,0.6692c0.1301,0.3594,0.1177,0.7001,0.0434,1.1027       l0.1177,0.0868h0.7683c0.0372-0.1053,0.0743-0.2045,0.1177-0.2417c0.0709-0.0672,0.313-0.6447,0.4955-1.1       C78.8539,48.2364,78.6849,47.8686,78.3534,47.7566z" fill="#ECB4BF"/><path d="M69.3043,56.12c1.3739-0.5113,2.9581-1.3003,4.7631-2.2771c-0.0061-0.0194,3.0933-1.9541,4.2335-3.9271       c-0.5551-0.7727-0.784-0.7718-1.104-0.7556c-1.3829,1.2812-2.6715,2.0126-4.6418,2.8968       c-0.4949,0.2189-2.2881,0.8006-4.0312,1.1449c-0.6439,0.1249-1.1405,0.6559-1.2366,1.2912       C67.118,55.6418,68.2403,56.5162,69.3043,56.12z" fill="#3887E5"/></g></g></g></g></g></svg>